<svg viewBox="0 0 100 100" xmlns="http://www.w3.org/2000/svg" aria-label="地図">
  <!-- 出典: 国土地理院 地球地図日本 第2.2版 https://www.gsi.go.jp/kankyochiri/gm_jpn.html -->
  <g class="map-fills map-dim" fill="#d0d5db" fill-rule="evenodd" stroke="none">
      <path data-pref="18" d="M52.97 23.07L53.69 22.75L53.21 23.57L54.09 23.75L54.06 22.87L54.47 22.96L54.32 24.41L55.64 24.73L58.41 23.05L58.63 23.71L57.53 23.81L57.90 24.21L57.48 24.76L56.24 24.74L57.62 25.07L58.19 25.07L58.45 24.63L59.96 24.90L60.67 24.46L61.20 23.39L59.97 23.85L59.93 23.27L59.17 23.00L59.83 22.43L60.79 22.50L61.02 23.19L61.39 23.08L61.22 22.79L62.12 23.71L63.09 23.39L62.21 22.36L63.24 22.60L63.68 21.77L63.63 21.44L63.05 21.43L63.22 20.91L62.56 20.29L63.39 20.48L63.96 21.27L65.06 20.80L65.46 21.25L66.19 20.56L66.56 20.87L67.05 20.65L67.21 20.31L66.60 19.88L66.93 18.72L66.80 18.26L66.38 18.52L66.34 18.00L68.05 16.74L68.75 18.43L68.26 19.17L68.77 19.81L69.58 19.70L69.52 19.20L69.91 19.04L69.73 18.46L70.22 17.90L69.92 17.49L70.32 17.05L70.29 16.35L69.47 14.96L67.44 13.12L67.50 11.72L66.44 10.38L67.88 8.85L68.35 7.04L70.16 5.26L70.63 3.85L71.09 4.24L71.13 3.85L70.80 3.99L71.22 3.32L70.96 2.51L72.26 2.45L74.18 1.21L74.79 2.08L75.71 2.29L76.57 3.14L76.67 4.45L77.32 5.01L78.66 4.82L79.27 5.65L79.94 5.86L80.83 5.20L81.30 5.56L82.51 5.31L85.21 7.18L85.55 7.87L87.99 7.32L88.22 7.64L87.42 8.40L87.24 9.96L87.90 10.12L87.98 11.12L89.01 11.40L88.81 12.05L89.55 12.40L90.10 13.99L89.31 14.40L88.94 15.70L87.16 15.44L86.81 15.89L85.45 16.17L85.04 15.48L84.41 16.07L83.81 15.72L83.04 16.34L81.75 16.03L81.27 17.13L80.72 16.38L79.31 16.42L77.80 15.82L76.47 16.41L76.34 18.11L75.48 18.87L75.67 19.26L75.18 19.81L72.59 18.49L71.65 18.67L71.22 19.48L72.37 21.64L72.15 22.53L70.65 22.02L70.43 23.60L69.84 23.26L69.48 23.67L68.29 23.58L67.75 24.69L67.09 24.83L65.96 23.85L65.24 26.45L64.62 27.25L63.84 27.51L63.61 27.03L62.58 26.98L62.37 27.80L61.92 27.75L61.32 28.65L59.49 29.01L57.90 28.33L54.98 28.02L54.74 26.76L53.95 26.63L53.97 26.26L52.95 25.39L53.38 24.30L52.68 23.76L52.97 23.07Z"/>
      <path data-pref="21" d="M75.67 19.26L75.48 18.87L76.34 18.11L76.47 16.41L77.80 15.82L79.31 16.42L80.72 16.38L81.27 17.13L81.75 16.03L83.04 16.34L83.81 15.72L84.41 16.07L85.04 15.48L85.45 16.17L86.81 15.89L87.16 15.44L88.94 15.70L89.31 14.40L90.10 13.99L89.55 12.40L88.81 12.05L89.01 11.40L87.98 11.12L87.90 10.12L87.24 9.96L87.42 8.40L88.26 7.86L87.99 7.32L88.68 5.69L88.31 5.14L89.19 4.79L90.63 2.59L89.63 2.06L89.02 1.10L90.09 0.89L90.24 -0.31L91.00 -0.38L91.16 -0.89L91.26 -0.17L92.14 -0.70L93.20 -0.27L93.87 0.65L93.51 1.69L93.97 1.83L94.95 1.28L95.20 0.54L96.05 0.20L96.22 -1.03L97.21 -1.38L97.13 -1.75L99.00 -3.50L99.83 -3.46L100.23 -2.66L101.33 -3.65L101.59 -3.35L102.19 -3.74L103.22 -3.58L102.90 -2.88L103.13 -2.57L105.21 -3.58L105.63 -2.61L106.70 -2.24L108.49 -2.52L109.25 -1.63L110.54 -1.55L110.57 -1.01L112.11 -0.13L112.15 1.40L110.17 3.41L110.74 4.82L109.65 5.74L109.56 6.63L111.25 7.62L110.74 9.45L109.34 10.35L107.53 12.94L106.34 12.61L104.93 13.00L104.51 13.40L104.45 14.25L103.72 14.40L103.45 15.22L103.78 15.74L104.95 15.64L105.43 16.39L107.06 16.81L108.13 18.98L109.39 20.07L108.57 21.32L109.19 21.98L110.10 22.01L110.19 23.15L111.74 24.18L111.73 25.32L110.70 26.00L111.82 27.31L111.23 27.61L110.21 27.37L110.84 28.01L110.99 29.22L109.72 29.99L109.84 30.76L108.71 30.78L106.27 32.54L105.93 32.03L105.18 32.04L105.02 31.45L103.96 31.52L103.99 31.09L102.98 30.55L102.10 30.56L100.66 31.58L99.67 31.65L99.12 30.80L97.41 30.24L96.86 30.52L96.35 29.74L96.49 29.26L95.92 29.22L95.93 28.39L94.05 27.24L94.46 26.66L93.87 26.72L93.59 27.38L92.51 27.98L90.15 28.65L88.43 28.28L85.93 32.01L85.70 35.15L85.07 34.21L85.05 34.82L84.26 34.68L83.88 33.85L82.42 32.62L82.03 31.55L81.33 32.15L80.09 32.15L79.55 32.71L79.27 32.36L78.73 32.67L77.82 31.96L78.32 31.53L78.16 30.64L78.97 28.92L78.77 28.20L79.60 27.67L78.72 26.82L78.94 25.42L78.07 24.80L78.56 24.05L78.42 23.57L77.65 22.70L76.94 23.39L76.73 23.00L76.19 23.07L76.34 21.05L75.40 20.93L75.05 19.97L75.67 19.26ZM85.77 28.91L85.78 28.31L86.26 28.34L86.22 28.95L85.77 28.91ZM85.90 26.17L86.48 25.98L86.33 27.03L85.90 26.17ZM96.89 25.95L97.44 25.46L97.69 25.66L96.89 25.95Z"/>
      <path data-pref="23" d="M85.93 32.01L88.43 28.28L90.15 28.65L92.51 27.98L93.59 27.38L93.65 26.78L94.41 26.64L94.05 27.24L95.93 28.39L95.92 29.22L96.49 29.26L96.35 29.74L96.86 30.52L97.41 30.24L99.12 30.80L99.67 31.65L100.66 31.58L102.10 30.56L102.98 30.55L103.99 31.09L103.96 31.52L105.02 31.45L105.18 32.04L105.93 32.03L106.27 32.54L108.71 30.78L110.00 30.59L109.42 31.65L110.25 32.61L110.30 33.25L112.07 32.94L112.40 32.39L113.11 32.19L115.20 32.58L115.67 33.11L117.32 32.84L116.38 33.70L117.07 34.56L116.09 35.12L116.30 35.97L115.70 36.14L115.61 36.79L114.05 38.03L113.61 38.95L113.78 39.86L112.54 40.63L111.96 42.20L110.80 42.78L110.53 43.43L108.23 43.93L107.82 44.56L107.98 45.28L107.49 46.26L107.93 47.81L107.74 48.57L98.55 51.01L95.66 51.36L95.06 51.33L96.65 48.91L97.52 49.49L97.42 49.77L97.85 49.71L98.44 49.41L98.19 49.10L100.71 48.51L101.29 47.63L101.70 47.93L101.73 47.35L102.35 46.91L102.79 47.00L102.79 47.99L102.35 48.43L102.95 48.44L103.44 47.75L103.02 47.79L102.99 47.09L104.16 47.01L103.31 46.86L103.59 45.46L102.71 44.58L101.44 44.73L100.49 44.22L100.32 44.81L99.91 44.62L99.38 45.89L99.20 45.25L95.39 45.55L94.56 44.42L93.25 44.12L93.56 44.05L93.36 43.46L94.20 42.16L94.13 40.24L93.67 42.65L93.13 42.53L93.01 43.10L92.70 42.97L92.93 43.30L92.33 45.74L93.65 46.80L94.00 47.76L92.74 47.73L91.54 47.14L90.31 45.94L91.03 43.82L90.26 42.43L90.11 42.72L89.81 42.44L89.78 40.03L90.70 38.95L90.47 38.82L91.12 38.81L90.64 38.57L91.06 37.20L91.84 36.59L91.05 36.33L90.47 38.05L90.26 37.55L90.57 36.77L90.00 36.63L89.73 37.20L90.09 37.16L90.27 38.14L89.56 38.30L89.69 37.54L89.15 37.54L89.24 38.18L88.70 38.07L89.07 38.61L88.73 38.52L87.80 36.64L85.75 34.85L85.93 32.01ZM89.42 34.09L89.48 33.49L90.34 33.96L90.18 34.44L89.42 34.09ZM91.98 31.65L92.43 31.31L92.78 31.80L92.23 32.15L91.98 31.65Z"/>
      <path data-pref="31" d="M-9.55 34.93L-8.33 34.09L-8.67 33.18L-9.41 33.11L-9.45 32.65L-5.20 31.21L-5.69 29.71L-5.61 28.93L-4.82 28.12L-4.92 27.16L-5.41 26.34L-7.59 24.99L-8.23 23.67L-7.33 23.01L-6.42 22.94L-6.98 23.42L-6.58 24.35L-5.15 25.31L-3.48 25.70L-3.65 26.34L-3.35 26.48L-3.01 25.79L-2.09 25.61L-1.53 24.62L1.75 23.56L7.29 24.42L11.73 24.07L13.47 23.71L13.67 23.34L13.95 23.83L15.57 23.81L20.15 22.93L21.45 21.82L22.51 21.74L22.65 21.30L23.15 21.50L23.47 21.10L24.86 22.61L24.63 24.00L25.10 24.35L25.37 26.12L26.45 26.63L26.25 28.01L27.36 28.71L27.06 29.54L27.40 30.95L25.98 32.14L25.21 32.35L24.10 31.67L22.15 33.15L21.07 33.31L20.52 32.90L18.71 33.51L18.29 34.09L17.62 33.36L17.87 32.35L17.17 32.07L17.53 31.50L17.22 30.90L16.10 30.11L15.35 30.37L13.74 30.06L13.47 29.88L13.85 28.81L11.62 29.30L11.44 30.07L9.76 30.49L9.82 31.07L8.89 31.78L7.99 30.46L6.57 29.72L4.76 29.74L2.53 28.97L1.54 31.85L0.08 32.37L0.63 33.70L-0.03 33.42L-1.41 34.01L-2.86 33.76L-2.47 35.10L-2.69 35.71L-4.91 36.31L-5.50 36.02L-5.73 36.95L-6.33 37.36L-6.81 36.77L-9.74 37.14L-9.92 36.88L-9.55 34.93Z"/>
      <path data-pref="33" d="M-5.73 36.95L-5.74 36.14L-4.76 36.29L-2.46 35.47L-2.86 33.76L-1.41 34.01L-0.03 33.42L0.63 33.70L0.08 32.37L1.54 31.85L2.53 28.97L4.76 29.74L6.57 29.72L7.99 30.46L8.89 31.78L9.82 31.07L9.76 30.49L11.44 30.07L11.62 29.30L13.85 28.81L13.47 29.88L13.74 30.06L15.35 30.37L16.10 30.11L17.22 30.90L17.53 31.50L17.17 32.07L17.87 32.35L17.62 33.36L18.12 34.09L20.52 32.90L21.07 33.31L22.15 33.15L24.10 31.67L24.35 32.01L23.77 32.68L23.82 33.37L24.60 33.61L24.52 34.73L23.38 34.80L22.90 36.41L22.09 36.63L22.02 37.78L21.13 37.94L20.62 38.59L21.21 39.17L20.35 40.87L21.44 41.75L20.58 42.41L20.32 43.39L20.59 44.11L21.25 44.08L22.03 44.84L22.00 45.45L22.50 45.82L21.97 46.63L22.16 47.17L20.91 46.80L20.73 47.24L20.05 47.36L18.48 46.57L18.31 46.84L18.99 47.02L18.72 47.31L19.26 47.34L18.84 47.55L19.84 47.38L20.09 47.77L18.60 49.22L18.06 49.22L18.17 49.82L18.53 49.80L18.06 50.33L17.45 50.24L17.09 50.82L15.80 51.30L14.93 51.12L15.18 50.50L14.74 50.80L13.35 50.34L12.94 50.73L12.17 50.66L12.37 51.21L14.36 50.81L14.73 51.41L14.35 51.51L14.28 52.17L13.51 52.32L13.55 53.29L12.83 52.66L12.37 52.94L12.48 53.79L11.79 54.20L11.67 55.07L8.46 54.58L8.65 55.70L7.59 55.46L6.39 52.92L6.29 53.70L5.85 53.76L6.34 53.93L6.51 54.51L5.44 54.30L5.44 52.48L4.76 52.98L5.09 53.08L4.90 53.45L4.24 53.05L3.93 53.51L2.48 53.91L2.48 54.54L1.03 54.77L-0.45 53.24L0.67 54.97L-0.77 55.36L-0.50 54.65L-1.25 54.82L-1.34 52.63L-3.23 50.10L-2.69 48.63L-3.24 48.40L-3.91 46.84L-3.37 44.74L-4.47 43.88L-5.55 42.27L-5.23 40.89L-5.56 40.35L-4.90 38.87L-6.37 37.53L-5.73 36.95Z"/>
      <path data-pref="36" d="M5.06 70.71L4.69 70.41L5.14 69.84L4.66 68.74L4.78 67.89L5.90 67.61L6.12 66.96L7.45 65.97L8.48 66.13L8.95 65.41L11.81 64.89L11.99 65.57L12.71 66.12L13.38 66.10L14.19 65.73L14.83 64.81L16.77 64.79L17.41 63.44L18.16 63.09L20.49 62.90L21.52 63.33L22.74 63.22L22.92 62.84L24.79 63.65L25.20 63.29L25.37 62.18L27.17 61.66L28.94 61.76L28.86 61.36L29.26 61.27L29.24 62.30L30.84 62.99L29.81 64.76L29.52 66.36L29.88 66.44L29.32 66.63L29.71 67.71L29.39 67.91L30.08 68.35L29.86 68.76L30.59 68.43L30.63 67.97L31.54 69.36L32.35 69.71L32.57 70.42L31.73 71.77L31.13 71.69L31.34 71.88L30.71 71.97L30.48 72.42L30.93 72.17L30.86 72.85L32.83 72.68L31.88 73.22L33.75 73.09L30.82 74.66L30.27 74.48L29.76 75.13L29.16 74.97L28.80 76.06L28.54 75.70L28.17 75.95L28.16 76.44L27.45 76.97L24.17 78.30L23.26 79.15L23.99 79.26L23.30 80.26L22.45 80.39L23.27 80.51L21.88 80.63L21.97 81.52L21.11 81.10L18.68 81.06L18.18 79.70L17.68 79.60L17.51 79.09L18.44 78.51L18.10 78.27L18.19 77.49L16.77 77.13L15.03 77.28L15.29 76.25L14.35 73.27L13.38 73.48L13.04 72.90L12.40 73.08L11.87 74.12L11.12 74.34L10.00 73.92L9.10 72.79L6.62 73.02L6.38 72.65L4.73 72.38L4.28 71.71L5.06 70.71Z"/>
      <path data-pref="37" d="M2.36 60.66L3.24 61.38L4.58 61.05L4.64 61.78L6.34 60.57L6.18 60.12L7.30 59.83L7.02 59.49L7.46 59.80L7.55 59.20L7.85 59.66L7.75 59.26L8.83 58.82L8.56 57.95L9.14 57.72L8.83 58.25L9.57 57.81L8.98 58.77L10.36 58.31L10.64 57.07L11.32 57.22L11.50 56.88L13.49 58.00L15.08 58.10L15.36 57.68L15.32 58.12L15.55 57.69L15.61 58.10L15.94 57.02L16.78 57.72L16.73 56.62L17.12 56.58L17.86 57.03L17.62 58.25L17.94 58.73L18.61 58.56L18.39 57.96L19.23 58.03L19.16 57.47L19.78 58.40L20.21 57.99L20.66 58.44L20.15 59.27L20.56 59.99L21.77 60.15L22.72 60.86L23.68 60.61L25.37 62.18L25.20 63.29L24.63 63.67L22.92 62.84L22.74 63.22L21.52 63.33L20.49 62.90L18.16 63.09L17.41 63.44L16.77 64.79L14.83 64.81L14.19 65.73L13.38 66.10L12.71 66.12L11.99 65.57L11.81 64.89L10.85 65.31L9.51 65.23L8.65 65.56L8.59 66.09L7.45 65.97L6.12 66.96L5.90 67.61L4.78 67.89L2.59 66.98L3.37 66.71L3.56 66.16L3.94 62.60L1.49 60.62L2.36 60.66Z"/>
  </g>
  <g class="map-borders map-dim" fill="none" stroke="#ffffff" stroke-width="0.45" stroke-linejoin="round" stroke-linecap="round">
      <path data-pref="18" d="M52.97 23.07L53.69 22.75L53.21 23.57L54.09 23.75L54.06 22.87L54.47 22.96L54.32 24.41L55.64 24.73L58.41 23.05L58.63 23.71L57.53 23.81L57.90 24.21L57.48 24.76L56.24 24.74L57.62 25.07L58.19 25.07L58.45 24.63L59.96 24.90L60.67 24.46L61.20 23.39L59.97 23.85L59.93 23.27L59.17 23.00L59.83 22.43L60.79 22.50L61.02 23.19L61.39 23.08L61.22 22.79L62.12 23.71L63.09 23.39L62.21 22.36L63.24 22.60L63.68 21.77L63.63 21.44L63.05 21.43L63.22 20.91L62.56 20.29L63.39 20.48L63.96 21.27L65.06 20.80L65.46 21.25L66.19 20.56L66.56 20.87L67.05 20.65L67.21 20.31L66.60 19.88L66.93 18.72L66.80 18.26L66.38 18.52L66.34 18.00L68.05 16.74L68.75 18.43L68.26 19.17L68.77 19.81L69.58 19.70L69.52 19.20L69.91 19.04L69.73 18.46L70.22 17.90L69.92 17.49L70.32 17.05L70.29 16.35L69.47 14.96L67.44 13.12L67.50 11.72L66.44 10.38L67.88 8.85L68.35 7.04L70.16 5.26L70.63 3.85L71.09 4.24L71.13 3.85L70.80 3.99L71.22 3.32L70.96 2.51L72.26 2.45L74.18 1.21L74.79 2.08L75.71 2.29L76.57 3.14L76.67 4.45L77.32 5.01L78.66 4.82L79.27 5.65L79.94 5.86L80.83 5.20L81.30 5.56L82.51 5.31L85.21 7.18L85.55 7.87L87.99 7.32L88.22 7.64L87.42 8.40L87.24 9.96L87.90 10.12L87.98 11.12L89.01 11.40L88.81 12.05L89.55 12.40L90.10 13.99L89.31 14.40L88.94 15.70L87.16 15.44L86.81 15.89L85.45 16.17L85.04 15.48L84.41 16.07L83.81 15.72L83.04 16.34L81.75 16.03L81.27 17.13L80.72 16.38L79.31 16.42L77.80 15.82L76.47 16.41L76.34 18.11L75.48 18.87L75.67 19.26L75.18 19.81L72.59 18.49L71.65 18.67L71.22 19.48L72.37 21.64L72.15 22.53L70.65 22.02L70.43 23.60L69.84 23.26L69.48 23.67L68.29 23.58L67.75 24.69L67.09 24.83L65.96 23.85L65.24 26.45L64.62 27.25L63.84 27.51L63.61 27.03L62.58 26.98L62.37 27.80L61.92 27.75L61.32 28.65L59.49 29.01L57.90 28.33L54.98 28.02L54.74 26.76L53.95 26.63L53.97 26.26L52.95 25.39L53.38 24.30L52.68 23.76L52.97 23.07Z"/>
      <path data-pref="21" d="M75.67 19.26L75.48 18.87L76.34 18.11L76.47 16.41L77.80 15.82L79.31 16.42L80.72 16.38L81.27 17.13L81.75 16.03L83.04 16.34L83.81 15.72L84.41 16.07L85.04 15.48L85.45 16.17L86.81 15.89L87.16 15.44L88.94 15.70L89.31 14.40L90.10 13.99L89.55 12.40L88.81 12.05L89.01 11.40L87.98 11.12L87.90 10.12L87.24 9.96L87.42 8.40L88.26 7.86L87.99 7.32L88.68 5.69L88.31 5.14L89.19 4.79L90.63 2.59L89.63 2.06L89.02 1.10L90.09 0.89L90.24 -0.31L91.00 -0.38L91.16 -0.89L91.26 -0.17L92.14 -0.70L93.20 -0.27L93.87 0.65L93.51 1.69L93.97 1.83L94.95 1.28L95.20 0.54L96.05 0.20L96.22 -1.03L97.21 -1.38L97.13 -1.75L99.00 -3.50L99.83 -3.46L100.23 -2.66L101.33 -3.65L101.59 -3.35L102.19 -3.74L103.22 -3.58L102.90 -2.88L103.13 -2.57L105.21 -3.58L105.63 -2.61L106.70 -2.24L108.49 -2.52L109.25 -1.63L110.54 -1.55L110.57 -1.01L112.11 -0.13L112.15 1.40L110.17 3.41L110.74 4.82L109.65 5.74L109.56 6.63L111.25 7.62L110.74 9.45L109.34 10.35L107.53 12.94L106.34 12.61L104.93 13.00L104.51 13.40L104.45 14.25L103.72 14.40L103.45 15.22L103.78 15.74L104.95 15.64L105.43 16.39L107.06 16.81L108.13 18.98L109.39 20.07L108.57 21.32L109.19 21.98L110.10 22.01L110.19 23.15L111.74 24.18L111.73 25.32L110.70 26.00L111.82 27.31L111.23 27.61L110.21 27.37L110.84 28.01L110.99 29.22L109.72 29.99L109.84 30.76L108.71 30.78L106.27 32.54L105.93 32.03L105.18 32.04L105.02 31.45L103.96 31.52L103.99 31.09L102.98 30.55L102.10 30.56L100.66 31.58L99.67 31.65L99.12 30.80L97.41 30.24L96.86 30.52L96.35 29.74L96.49 29.26L95.92 29.22L95.93 28.39L94.05 27.24L94.46 26.66L93.87 26.72L93.59 27.38L92.51 27.98L90.15 28.65L88.43 28.28L85.93 32.01L85.70 35.15L85.07 34.21L85.05 34.82L84.26 34.68L83.88 33.85L82.42 32.62L82.03 31.55L81.33 32.15L80.09 32.15L79.55 32.71L79.27 32.36L78.73 32.67L77.82 31.96L78.32 31.53L78.16 30.64L78.97 28.92L78.77 28.20L79.60 27.67L78.72 26.82L78.94 25.42L78.07 24.80L78.56 24.05L78.42 23.57L77.65 22.70L76.94 23.39L76.73 23.00L76.19 23.07L76.34 21.05L75.40 20.93L75.05 19.97L75.67 19.26ZM85.77 28.91L85.78 28.31L86.26 28.34L86.22 28.95L85.77 28.91ZM85.90 26.17L86.48 25.98L86.33 27.03L85.90 26.17ZM96.89 25.95L97.44 25.46L97.69 25.66L96.89 25.95Z"/>
      <path data-pref="23" d="M85.93 32.01L88.43 28.28L90.15 28.65L92.51 27.98L93.59 27.38L93.65 26.78L94.41 26.64L94.05 27.24L95.93 28.39L95.92 29.22L96.49 29.26L96.35 29.74L96.86 30.52L97.41 30.24L99.12 30.80L99.67 31.65L100.66 31.58L102.10 30.56L102.98 30.55L103.99 31.09L103.96 31.52L105.02 31.45L105.18 32.04L105.93 32.03L106.27 32.54L108.71 30.78L110.00 30.59L109.42 31.65L110.25 32.61L110.30 33.25L112.07 32.94L112.40 32.39L113.11 32.19L115.20 32.58L115.67 33.11L117.32 32.84L116.38 33.70L117.07 34.56L116.09 35.12L116.30 35.97L115.70 36.14L115.61 36.79L114.05 38.03L113.61 38.95L113.78 39.86L112.54 40.63L111.96 42.20L110.80 42.78L110.53 43.43L108.23 43.93L107.82 44.56L107.98 45.28L107.49 46.26L107.93 47.81L107.74 48.57L98.55 51.01L95.66 51.36L95.06 51.33L96.65 48.91L97.52 49.49L97.42 49.77L97.85 49.71L98.44 49.41L98.19 49.10L100.71 48.51L101.29 47.63L101.70 47.93L101.73 47.35L102.35 46.91L102.79 47.00L102.79 47.99L102.35 48.43L102.95 48.44L103.44 47.75L103.02 47.79L102.99 47.09L104.16 47.01L103.31 46.86L103.59 45.46L102.71 44.58L101.44 44.73L100.49 44.22L100.32 44.81L99.91 44.62L99.38 45.89L99.20 45.25L95.39 45.55L94.56 44.42L93.25 44.12L93.56 44.05L93.36 43.46L94.20 42.16L94.13 40.24L93.67 42.65L93.13 42.53L93.01 43.10L92.70 42.97L92.93 43.30L92.33 45.74L93.65 46.80L94.00 47.76L92.74 47.73L91.54 47.14L90.31 45.94L91.03 43.82L90.26 42.43L90.11 42.72L89.81 42.44L89.78 40.03L90.70 38.95L90.47 38.82L91.12 38.81L90.64 38.57L91.06 37.20L91.84 36.59L91.05 36.33L90.47 38.05L90.26 37.55L90.57 36.77L90.00 36.63L89.73 37.20L90.09 37.16L90.27 38.14L89.56 38.30L89.69 37.54L89.15 37.54L89.24 38.18L88.70 38.07L89.07 38.61L88.73 38.52L87.80 36.64L85.75 34.85L85.93 32.01ZM89.42 34.09L89.48 33.49L90.34 33.96L90.18 34.44L89.42 34.09ZM91.98 31.65L92.43 31.31L92.78 31.80L92.23 32.15L91.98 31.65Z"/>
      <path data-pref="31" d="M-9.55 34.93L-8.33 34.09L-8.67 33.18L-9.41 33.11L-9.45 32.65L-5.20 31.21L-5.69 29.71L-5.61 28.93L-4.82 28.12L-4.92 27.16L-5.41 26.34L-7.59 24.99L-8.23 23.67L-7.33 23.01L-6.42 22.94L-6.98 23.42L-6.58 24.35L-5.15 25.31L-3.48 25.70L-3.65 26.34L-3.35 26.48L-3.01 25.79L-2.09 25.61L-1.53 24.62L1.75 23.56L7.29 24.42L11.73 24.07L13.47 23.71L13.67 23.34L13.95 23.83L15.57 23.81L20.15 22.93L21.45 21.82L22.51 21.74L22.65 21.30L23.15 21.50L23.47 21.10L24.86 22.61L24.63 24.00L25.10 24.35L25.37 26.12L26.45 26.63L26.25 28.01L27.36 28.71L27.06 29.54L27.40 30.95L25.98 32.14L25.21 32.35L24.10 31.67L22.15 33.15L21.07 33.31L20.52 32.90L18.71 33.51L18.29 34.09L17.62 33.36L17.87 32.35L17.17 32.07L17.53 31.50L17.22 30.90L16.10 30.11L15.35 30.37L13.74 30.06L13.47 29.88L13.85 28.81L11.62 29.30L11.44 30.07L9.76 30.49L9.82 31.07L8.89 31.78L7.99 30.46L6.57 29.72L4.76 29.74L2.53 28.97L1.54 31.85L0.08 32.37L0.63 33.70L-0.03 33.42L-1.41 34.01L-2.86 33.76L-2.47 35.10L-2.69 35.71L-4.91 36.31L-5.50 36.02L-5.73 36.95L-6.33 37.36L-6.81 36.77L-9.74 37.14L-9.92 36.88L-9.55 34.93Z"/>
      <path data-pref="33" d="M-5.73 36.95L-5.74 36.14L-4.76 36.29L-2.46 35.47L-2.86 33.76L-1.41 34.01L-0.03 33.42L0.63 33.70L0.08 32.37L1.54 31.85L2.53 28.97L4.76 29.74L6.57 29.72L7.99 30.46L8.89 31.78L9.82 31.07L9.76 30.49L11.44 30.07L11.62 29.30L13.85 28.81L13.47 29.88L13.74 30.06L15.35 30.37L16.10 30.11L17.22 30.90L17.53 31.50L17.17 32.07L17.87 32.35L17.62 33.36L18.12 34.09L20.52 32.90L21.07 33.31L22.15 33.15L24.10 31.67L24.35 32.01L23.77 32.68L23.82 33.37L24.60 33.61L24.52 34.73L23.38 34.80L22.90 36.41L22.09 36.63L22.02 37.78L21.13 37.94L20.62 38.59L21.21 39.17L20.35 40.87L21.44 41.75L20.58 42.41L20.32 43.39L20.59 44.11L21.25 44.08L22.03 44.84L22.00 45.45L22.50 45.82L21.97 46.63L22.16 47.17L20.91 46.80L20.73 47.24L20.05 47.36L18.48 46.57L18.31 46.84L18.99 47.02L18.72 47.31L19.26 47.34L18.84 47.55L19.84 47.38L20.09 47.77L18.60 49.22L18.06 49.22L18.17 49.82L18.53 49.80L18.06 50.33L17.45 50.24L17.09 50.82L15.80 51.30L14.93 51.12L15.18 50.50L14.74 50.80L13.35 50.34L12.94 50.73L12.17 50.66L12.37 51.21L14.36 50.81L14.73 51.41L14.35 51.51L14.28 52.17L13.51 52.32L13.55 53.29L12.83 52.66L12.37 52.94L12.48 53.79L11.79 54.20L11.67 55.07L8.46 54.58L8.65 55.70L7.59 55.46L6.39 52.92L6.29 53.70L5.85 53.76L6.34 53.93L6.51 54.51L5.44 54.30L5.44 52.48L4.76 52.98L5.09 53.08L4.90 53.45L4.24 53.05L3.93 53.51L2.48 53.91L2.48 54.54L1.03 54.77L-0.45 53.24L0.67 54.97L-0.77 55.36L-0.50 54.65L-1.25 54.82L-1.34 52.63L-3.23 50.10L-2.69 48.63L-3.24 48.40L-3.91 46.84L-3.37 44.74L-4.47 43.88L-5.55 42.27L-5.23 40.89L-5.56 40.35L-4.90 38.87L-6.37 37.53L-5.73 36.95Z"/>
      <path data-pref="36" d="M5.06 70.71L4.69 70.41L5.14 69.84L4.66 68.74L4.78 67.89L5.90 67.61L6.12 66.96L7.45 65.97L8.48 66.13L8.95 65.41L11.81 64.89L11.99 65.57L12.71 66.12L13.38 66.10L14.19 65.73L14.83 64.81L16.77 64.79L17.41 63.44L18.16 63.09L20.49 62.90L21.52 63.33L22.74 63.22L22.92 62.84L24.79 63.65L25.20 63.29L25.37 62.18L27.17 61.66L28.94 61.76L28.86 61.36L29.26 61.27L29.24 62.30L30.84 62.99L29.81 64.76L29.52 66.36L29.88 66.44L29.32 66.63L29.71 67.71L29.39 67.91L30.08 68.35L29.86 68.76L30.59 68.43L30.63 67.97L31.54 69.36L32.35 69.71L32.57 70.42L31.73 71.77L31.13 71.69L31.34 71.88L30.71 71.97L30.48 72.42L30.93 72.17L30.86 72.85L32.83 72.68L31.88 73.22L33.75 73.09L30.82 74.66L30.27 74.48L29.76 75.13L29.16 74.97L28.80 76.06L28.54 75.70L28.17 75.95L28.16 76.44L27.45 76.97L24.17 78.30L23.26 79.15L23.99 79.26L23.30 80.26L22.45 80.39L23.27 80.51L21.88 80.63L21.97 81.52L21.11 81.10L18.68 81.06L18.18 79.70L17.68 79.60L17.51 79.09L18.44 78.51L18.10 78.27L18.19 77.49L16.77 77.13L15.03 77.28L15.29 76.25L14.35 73.27L13.38 73.48L13.04 72.90L12.40 73.08L11.87 74.12L11.12 74.34L10.00 73.92L9.10 72.79L6.62 73.02L6.38 72.65L4.73 72.38L4.28 71.71L5.06 70.71Z"/>
      <path data-pref="37" d="M2.36 60.66L3.24 61.38L4.58 61.05L4.64 61.78L6.34 60.57L6.18 60.12L7.30 59.83L7.02 59.49L7.46 59.80L7.55 59.20L7.85 59.66L7.75 59.26L8.83 58.82L8.56 57.95L9.14 57.72L8.83 58.25L9.57 57.81L8.98 58.77L10.36 58.31L10.64 57.07L11.32 57.22L11.50 56.88L13.49 58.00L15.08 58.10L15.36 57.68L15.32 58.12L15.55 57.69L15.61 58.10L15.94 57.02L16.78 57.72L16.73 56.62L17.12 56.58L17.86 57.03L17.62 58.25L17.94 58.73L18.61 58.56L18.39 57.96L19.23 58.03L19.16 57.47L19.78 58.40L20.21 57.99L20.66 58.44L20.15 59.27L20.56 59.99L21.77 60.15L22.72 60.86L23.68 60.61L25.37 62.18L25.20 63.29L24.63 63.67L22.92 62.84L22.74 63.22L21.52 63.33L20.49 62.90L18.16 63.09L17.41 63.44L16.77 64.79L14.83 64.81L14.19 65.73L13.38 66.10L12.71 66.12L11.99 65.57L11.81 64.89L10.85 65.31L9.51 65.23L8.65 65.56L8.59 66.09L7.45 65.97L6.12 66.96L5.90 67.61L4.78 67.89L2.59 66.98L3.37 66.71L3.56 66.16L3.94 62.60L1.49 60.62L2.36 60.66Z"/>
  </g>
  <g class="map-fills map-dim map-fills-cover" fill="#d0d5db" fill-rule="evenodd" stroke="none">
      <path data-pref="18" d="M52.97 23.07L53.69 22.75L53.21 23.57L54.09 23.75L54.06 22.87L54.47 22.96L54.32 24.41L55.64 24.73L58.41 23.05L58.63 23.71L57.53 23.81L57.90 24.21L57.48 24.76L56.24 24.74L57.62 25.07L58.19 25.07L58.45 24.63L59.96 24.90L60.67 24.46L61.20 23.39L59.97 23.85L59.93 23.27L59.17 23.00L59.83 22.43L60.79 22.50L61.02 23.19L61.39 23.08L61.22 22.79L62.12 23.71L63.09 23.39L62.21 22.36L63.24 22.60L63.68 21.77L63.63 21.44L63.05 21.43L63.22 20.91L62.56 20.29L63.39 20.48L63.96 21.27L65.06 20.80L65.46 21.25L66.19 20.56L66.56 20.87L67.05 20.65L67.21 20.31L66.60 19.88L66.93 18.72L66.80 18.26L66.38 18.52L66.34 18.00L68.05 16.74L68.75 18.43L68.26 19.17L68.77 19.81L69.58 19.70L69.52 19.20L69.91 19.04L69.73 18.46L70.22 17.90L69.92 17.49L70.32 17.05L70.29 16.35L69.47 14.96L67.44 13.12L67.50 11.72L66.44 10.38L67.88 8.85L68.35 7.04L70.16 5.26L70.63 3.85L71.09 4.24L71.13 3.85L70.80 3.99L71.22 3.32L70.96 2.51L72.26 2.45L74.18 1.21L74.79 2.08L75.71 2.29L76.57 3.14L76.67 4.45L77.32 5.01L78.66 4.82L79.27 5.65L79.94 5.86L80.83 5.20L81.30 5.56L82.51 5.31L85.21 7.18L85.55 7.87L87.99 7.32L88.22 7.64L87.42 8.40L87.24 9.96L87.90 10.12L87.98 11.12L89.01 11.40L88.81 12.05L89.55 12.40L90.10 13.99L89.31 14.40L88.94 15.70L87.16 15.44L86.81 15.89L85.45 16.17L85.04 15.48L84.41 16.07L83.81 15.72L83.04 16.34L81.75 16.03L81.27 17.13L80.72 16.38L79.31 16.42L77.80 15.82L76.47 16.41L76.34 18.11L75.48 18.87L75.67 19.26L75.18 19.81L72.59 18.49L71.65 18.67L71.22 19.48L72.37 21.64L72.15 22.53L70.65 22.02L70.43 23.60L69.84 23.26L69.48 23.67L68.29 23.58L67.75 24.69L67.09 24.83L65.96 23.85L65.24 26.45L64.62 27.25L63.84 27.51L63.61 27.03L62.58 26.98L62.37 27.80L61.92 27.75L61.32 28.65L59.49 29.01L57.90 28.33L54.98 28.02L54.74 26.76L53.95 26.63L53.97 26.26L52.95 25.39L53.38 24.30L52.68 23.76L52.97 23.07Z"/>
      <path data-pref="21" d="M75.67 19.26L75.48 18.87L76.34 18.11L76.47 16.41L77.80 15.82L79.31 16.42L80.72 16.38L81.27 17.13L81.75 16.03L83.04 16.34L83.81 15.72L84.41 16.07L85.04 15.48L85.45 16.17L86.81 15.89L87.16 15.44L88.94 15.70L89.31 14.40L90.10 13.99L89.55 12.40L88.81 12.05L89.01 11.40L87.98 11.12L87.90 10.12L87.24 9.96L87.42 8.40L88.26 7.86L87.99 7.32L88.68 5.69L88.31 5.14L89.19 4.79L90.63 2.59L89.63 2.06L89.02 1.10L90.09 0.89L90.24 -0.31L91.00 -0.38L91.16 -0.89L91.26 -0.17L92.14 -0.70L93.20 -0.27L93.87 0.65L93.51 1.69L93.97 1.83L94.95 1.28L95.20 0.54L96.05 0.20L96.22 -1.03L97.21 -1.38L97.13 -1.75L99.00 -3.50L99.83 -3.46L100.23 -2.66L101.33 -3.65L101.59 -3.35L102.19 -3.74L103.22 -3.58L102.90 -2.88L103.13 -2.57L105.21 -3.58L105.63 -2.61L106.70 -2.24L108.49 -2.52L109.25 -1.63L110.54 -1.55L110.57 -1.01L112.11 -0.13L112.15 1.40L110.17 3.41L110.74 4.82L109.65 5.74L109.56 6.63L111.25 7.62L110.74 9.45L109.34 10.35L107.53 12.94L106.34 12.61L104.93 13.00L104.51 13.40L104.45 14.25L103.72 14.40L103.45 15.22L103.78 15.74L104.95 15.64L105.43 16.39L107.06 16.81L108.13 18.98L109.39 20.07L108.57 21.32L109.19 21.98L110.10 22.01L110.19 23.15L111.74 24.18L111.73 25.32L110.70 26.00L111.82 27.31L111.23 27.61L110.21 27.37L110.84 28.01L110.99 29.22L109.72 29.99L109.84 30.76L108.71 30.78L106.27 32.54L105.93 32.03L105.18 32.04L105.02 31.45L103.96 31.52L103.99 31.09L102.98 30.55L102.10 30.56L100.66 31.58L99.67 31.65L99.12 30.80L97.41 30.24L96.86 30.52L96.35 29.74L96.49 29.26L95.92 29.22L95.93 28.39L94.05 27.24L94.46 26.66L93.87 26.72L93.59 27.38L92.51 27.98L90.15 28.65L88.43 28.28L85.93 32.01L85.70 35.15L85.07 34.21L85.05 34.82L84.26 34.68L83.88 33.85L82.42 32.62L82.03 31.55L81.33 32.15L80.09 32.15L79.55 32.71L79.27 32.36L78.73 32.67L77.82 31.96L78.32 31.53L78.16 30.64L78.97 28.92L78.77 28.20L79.60 27.67L78.72 26.82L78.94 25.42L78.07 24.80L78.56 24.05L78.42 23.57L77.65 22.70L76.94 23.39L76.73 23.00L76.19 23.07L76.34 21.05L75.40 20.93L75.05 19.97L75.67 19.26ZM85.77 28.91L85.78 28.31L86.26 28.34L86.22 28.95L85.77 28.91ZM85.90 26.17L86.48 25.98L86.33 27.03L85.90 26.17ZM96.89 25.95L97.44 25.46L97.69 25.66L96.89 25.95Z"/>
      <path data-pref="23" d="M85.93 32.01L88.43 28.28L90.15 28.65L92.51 27.98L93.59 27.38L93.65 26.78L94.41 26.64L94.05 27.24L95.93 28.39L95.92 29.22L96.49 29.26L96.35 29.74L96.86 30.52L97.41 30.24L99.12 30.80L99.67 31.65L100.66 31.58L102.10 30.56L102.98 30.55L103.99 31.09L103.96 31.52L105.02 31.45L105.18 32.04L105.93 32.03L106.27 32.54L108.71 30.78L110.00 30.59L109.42 31.65L110.25 32.61L110.30 33.25L112.07 32.94L112.40 32.39L113.11 32.19L115.20 32.58L115.67 33.11L117.32 32.84L116.38 33.70L117.07 34.56L116.09 35.12L116.30 35.97L115.70 36.14L115.61 36.79L114.05 38.03L113.61 38.95L113.78 39.86L112.54 40.63L111.96 42.20L110.80 42.78L110.53 43.43L108.23 43.93L107.82 44.56L107.98 45.28L107.49 46.26L107.93 47.81L107.74 48.57L98.55 51.01L95.66 51.36L95.06 51.33L96.65 48.91L97.52 49.49L97.42 49.77L97.85 49.71L98.44 49.41L98.19 49.10L100.71 48.51L101.29 47.63L101.70 47.93L101.73 47.35L102.35 46.91L102.79 47.00L102.79 47.99L102.35 48.43L102.95 48.44L103.44 47.75L103.02 47.79L102.99 47.09L104.16 47.01L103.31 46.86L103.59 45.46L102.71 44.58L101.44 44.73L100.49 44.22L100.32 44.81L99.91 44.62L99.38 45.89L99.20 45.25L95.39 45.55L94.56 44.42L93.25 44.12L93.56 44.05L93.36 43.46L94.20 42.16L94.13 40.24L93.67 42.65L93.13 42.53L93.01 43.10L92.70 42.97L92.93 43.30L92.33 45.74L93.65 46.80L94.00 47.76L92.74 47.73L91.54 47.14L90.31 45.94L91.03 43.82L90.26 42.43L90.11 42.72L89.81 42.44L89.78 40.03L90.70 38.95L90.47 38.82L91.12 38.81L90.64 38.57L91.06 37.20L91.84 36.59L91.05 36.33L90.47 38.05L90.26 37.55L90.57 36.77L90.00 36.63L89.73 37.20L90.09 37.16L90.27 38.14L89.56 38.30L89.69 37.54L89.15 37.54L89.24 38.18L88.70 38.07L89.07 38.61L88.73 38.52L87.80 36.64L85.75 34.85L85.93 32.01ZM89.42 34.09L89.48 33.49L90.34 33.96L90.18 34.44L89.42 34.09ZM91.98 31.65L92.43 31.31L92.78 31.80L92.23 32.15L91.98 31.65Z"/>
      <path data-pref="31" d="M-9.55 34.93L-8.33 34.09L-8.67 33.18L-9.41 33.11L-9.45 32.65L-5.20 31.21L-5.69 29.71L-5.61 28.93L-4.82 28.12L-4.92 27.16L-5.41 26.34L-7.59 24.99L-8.23 23.67L-7.33 23.01L-6.42 22.94L-6.98 23.42L-6.58 24.35L-5.15 25.31L-3.48 25.70L-3.65 26.34L-3.35 26.48L-3.01 25.79L-2.09 25.61L-1.53 24.62L1.75 23.56L7.29 24.42L11.73 24.07L13.47 23.71L13.67 23.34L13.95 23.83L15.57 23.81L20.15 22.93L21.45 21.82L22.51 21.74L22.65 21.30L23.15 21.50L23.47 21.10L24.86 22.61L24.63 24.00L25.10 24.35L25.37 26.12L26.45 26.63L26.25 28.01L27.36 28.71L27.06 29.54L27.40 30.95L25.98 32.14L25.21 32.35L24.10 31.67L22.15 33.15L21.07 33.31L20.52 32.90L18.71 33.51L18.29 34.09L17.62 33.36L17.87 32.35L17.17 32.07L17.53 31.50L17.22 30.90L16.10 30.11L15.35 30.37L13.74 30.06L13.47 29.88L13.85 28.81L11.62 29.30L11.44 30.07L9.76 30.49L9.82 31.07L8.89 31.78L7.99 30.46L6.57 29.72L4.76 29.74L2.53 28.97L1.54 31.85L0.08 32.37L0.63 33.70L-0.03 33.42L-1.41 34.01L-2.86 33.76L-2.47 35.10L-2.69 35.71L-4.91 36.31L-5.50 36.02L-5.73 36.95L-6.33 37.36L-6.81 36.77L-9.74 37.14L-9.92 36.88L-9.55 34.93Z"/>
      <path data-pref="33" d="M-5.73 36.95L-5.74 36.14L-4.76 36.29L-2.46 35.47L-2.86 33.76L-1.41 34.01L-0.03 33.42L0.63 33.70L0.08 32.37L1.54 31.85L2.53 28.97L4.76 29.74L6.57 29.72L7.99 30.46L8.89 31.78L9.82 31.07L9.76 30.49L11.44 30.07L11.62 29.30L13.85 28.81L13.47 29.88L13.74 30.06L15.35 30.37L16.10 30.11L17.22 30.90L17.53 31.50L17.17 32.07L17.87 32.35L17.62 33.36L18.12 34.09L20.52 32.90L21.07 33.31L22.15 33.15L24.10 31.67L24.35 32.01L23.77 32.68L23.82 33.37L24.60 33.61L24.52 34.73L23.38 34.80L22.90 36.41L22.09 36.63L22.02 37.78L21.13 37.94L20.62 38.59L21.21 39.17L20.35 40.87L21.44 41.75L20.58 42.41L20.32 43.39L20.59 44.11L21.25 44.08L22.03 44.84L22.00 45.45L22.50 45.82L21.97 46.63L22.16 47.17L20.91 46.80L20.73 47.24L20.05 47.36L18.48 46.57L18.31 46.84L18.99 47.02L18.72 47.31L19.26 47.34L18.84 47.55L19.84 47.38L20.09 47.77L18.60 49.22L18.06 49.22L18.17 49.82L18.53 49.80L18.06 50.33L17.45 50.24L17.09 50.82L15.80 51.30L14.93 51.12L15.18 50.50L14.74 50.80L13.35 50.34L12.94 50.73L12.17 50.66L12.37 51.21L14.36 50.81L14.73 51.41L14.35 51.51L14.28 52.17L13.51 52.32L13.55 53.29L12.83 52.66L12.37 52.94L12.48 53.79L11.79 54.20L11.67 55.07L8.46 54.58L8.65 55.70L7.59 55.46L6.39 52.92L6.29 53.70L5.85 53.76L6.34 53.93L6.51 54.51L5.44 54.30L5.44 52.48L4.76 52.98L5.09 53.08L4.90 53.45L4.24 53.05L3.93 53.51L2.48 53.91L2.48 54.54L1.03 54.77L-0.45 53.24L0.67 54.97L-0.77 55.36L-0.50 54.65L-1.25 54.82L-1.34 52.63L-3.23 50.10L-2.69 48.63L-3.24 48.40L-3.91 46.84L-3.37 44.74L-4.47 43.88L-5.55 42.27L-5.23 40.89L-5.56 40.35L-4.90 38.87L-6.37 37.53L-5.73 36.95Z"/>
      <path data-pref="36" d="M5.06 70.71L4.69 70.41L5.14 69.84L4.66 68.74L4.78 67.89L5.90 67.61L6.12 66.96L7.45 65.97L8.48 66.13L8.95 65.41L11.81 64.89L11.99 65.57L12.71 66.12L13.38 66.10L14.19 65.73L14.83 64.81L16.77 64.79L17.41 63.44L18.16 63.09L20.49 62.90L21.52 63.33L22.74 63.22L22.92 62.84L24.79 63.65L25.20 63.29L25.37 62.18L27.17 61.66L28.94 61.76L28.86 61.36L29.26 61.27L29.24 62.30L30.84 62.99L29.81 64.76L29.52 66.36L29.88 66.44L29.32 66.63L29.71 67.71L29.39 67.91L30.08 68.35L29.86 68.76L30.59 68.43L30.63 67.97L31.54 69.36L32.35 69.71L32.57 70.42L31.73 71.77L31.13 71.69L31.34 71.88L30.71 71.97L30.48 72.42L30.93 72.17L30.86 72.85L32.83 72.68L31.88 73.22L33.75 73.09L30.82 74.66L30.27 74.48L29.76 75.13L29.16 74.97L28.80 76.06L28.54 75.70L28.17 75.95L28.16 76.44L27.45 76.97L24.17 78.30L23.26 79.15L23.99 79.26L23.30 80.26L22.45 80.39L23.27 80.51L21.88 80.63L21.97 81.52L21.11 81.10L18.68 81.06L18.18 79.70L17.68 79.60L17.51 79.09L18.44 78.51L18.10 78.27L18.19 77.49L16.77 77.13L15.03 77.28L15.29 76.25L14.35 73.27L13.38 73.48L13.04 72.90L12.40 73.08L11.87 74.12L11.12 74.34L10.00 73.92L9.10 72.79L6.62 73.02L6.38 72.65L4.73 72.38L4.28 71.71L5.06 70.71Z"/>
      <path data-pref="37" d="M2.36 60.66L3.24 61.38L4.58 61.05L4.64 61.78L6.34 60.57L6.18 60.12L7.30 59.83L7.02 59.49L7.46 59.80L7.55 59.20L7.85 59.66L7.75 59.26L8.83 58.82L8.56 57.95L9.14 57.72L8.83 58.25L9.57 57.81L8.98 58.77L10.36 58.31L10.64 57.07L11.32 57.22L11.50 56.88L13.49 58.00L15.08 58.10L15.36 57.68L15.32 58.12L15.55 57.69L15.61 58.10L15.94 57.02L16.78 57.72L16.73 56.62L17.12 56.58L17.86 57.03L17.62 58.25L17.94 58.73L18.61 58.56L18.39 57.96L19.23 58.03L19.16 57.47L19.78 58.40L20.21 57.99L20.66 58.44L20.15 59.27L20.56 59.99L21.77 60.15L22.72 60.86L23.68 60.61L25.37 62.18L25.20 63.29L24.63 63.67L22.92 62.84L22.74 63.22L21.52 63.33L20.49 62.90L18.16 63.09L17.41 63.44L16.77 64.79L14.83 64.81L14.19 65.73L13.38 66.10L12.71 66.12L11.99 65.57L11.81 64.89L10.85 65.31L9.51 65.23L8.65 65.56L8.59 66.09L7.45 65.97L6.12 66.96L5.90 67.61L4.78 67.89L2.59 66.98L3.37 66.71L3.56 66.16L3.94 62.60L1.49 60.62L2.36 60.66Z"/>
  </g>
  <g class="map-fills map-focus" data-region="KINKI" fill="#76c85a" fill-rule="evenodd" stroke="none">
      <path data-pref="24" d="M63.61 72.31L63.83 71.87L64.12 72.38L64.76 72.09L64.92 71.66L64.67 71.36L64.56 71.72L64.30 70.93L64.73 71.00L64.70 70.59L65.76 70.69L65.36 70.53L65.63 69.98L66.74 70.33L66.95 69.24L67.56 69.55L67.89 69.24L67.46 68.25L68.09 67.21L70.38 67.51L70.10 65.84L70.79 65.85L70.27 64.79L70.68 63.60L70.11 62.54L70.74 62.05L70.57 61.56L71.14 60.90L70.15 59.46L71.08 59.03L70.34 58.43L69.45 56.76L70.18 55.54L73.16 55.15L73.78 53.82L73.40 53.56L73.44 52.83L72.11 53.07L71.80 51.94L70.68 52.31L68.93 51.31L68.84 50.72L69.55 49.66L68.68 48.88L69.31 49.21L69.90 48.50L69.03 47.66L69.42 47.15L68.36 46.14L68.49 45.51L68.14 45.20L70.03 44.48L69.91 43.79L71.01 43.08L69.89 42.62L70.58 41.91L71.13 42.46L72.44 42.36L74.36 43.20L77.48 41.82L77.68 40.75L78.80 39.64L78.90 37.63L79.53 37.15L79.71 35.44L79.39 35.25L79.88 34.33L78.64 33.58L78.81 32.69L79.27 32.36L79.55 32.71L80.21 32.11L81.33 32.15L82.03 31.55L82.42 32.62L83.88 33.85L84.26 34.68L85.05 34.82L85.07 34.21L85.70 35.15L87.80 36.64L88.49 38.34L87.86 37.97L85.21 39.25L84.72 40.51L85.63 40.89L85.10 40.95L84.50 42.88L82.03 46.26L81.76 48.42L82.66 48.64L82.30 50.08L81.87 50.41L82.80 50.30L84.98 51.00L85.58 51.92L88.61 53.39L89.50 53.41L89.66 54.08L90.07 53.47L90.56 54.48L91.33 54.41L91.00 54.82L91.52 55.17L91.28 55.74L91.85 55.01L92.57 55.26L92.70 56.18L92.21 56.62L92.28 57.28L91.61 56.80L91.42 57.14L91.10 56.91L91.29 57.43L90.78 57.64L90.54 57.62L90.62 57.85L90.98 57.63L91.01 58.24L92.16 57.58L91.34 58.43L91.94 60.19L91.12 60.28L90.52 61.05L88.32 60.65L87.90 60.38L88.42 60.12L89.55 60.55L89.96 60.30L90.04 60.70L90.59 60.27L90.83 60.50L90.83 60.11L90.06 60.22L90.15 59.74L91.04 59.89L89.97 59.46L90.53 59.10L89.37 59.23L89.38 58.68L89.03 59.23L89.52 59.57L89.02 59.84L88.51 59.57L88.62 59.05L88.20 59.04L87.96 59.54L88.25 59.72L87.17 59.37L86.26 59.96L86.38 58.95L86.77 58.99L86.64 58.67L86.96 58.81L87.26 58.26L86.69 58.43L86.74 58.07L86.34 58.08L86.05 58.80L86.28 58.18L85.44 58.17L85.78 58.77L84.84 59.25L85.90 59.01L85.43 59.80L83.95 60.71L83.45 60.73L83.30 60.28L83.06 60.22L83.69 60.04L83.57 59.65L82.75 60.21L82.42 60.03L82.68 60.43L82.42 60.95L82.21 60.15L81.84 60.68L81.94 60.28L81.23 60.14L81.59 61.29L81.14 60.71L80.86 60.89L81.23 61.14L80.70 61.26L81.34 61.55L80.62 61.84L80.13 61.48L80.20 60.76L79.52 61.02L79.88 61.17L79.79 61.84L78.38 62.33L78.41 61.86L77.97 61.93L77.39 62.74L77.15 62.07L76.30 62.53L76.70 62.50L76.57 62.99L75.80 62.99L75.37 63.68L75.12 63.53L75.31 64.84L76.12 64.91L75.64 65.73L75.46 65.42L74.82 65.87L74.98 65.27L74.33 65.49L75.05 64.69L74.85 64.49L73.74 65.33L73.98 65.73L73.05 66.01L73.23 66.42L74.40 66.45L74.19 67.12L75.22 67.68L74.16 67.83L74.94 68.11L74.55 68.31L74.93 69.04L74.04 69.15L73.95 68.84L74.42 68.72L73.29 68.27L73.41 68.72L72.78 69.08L73.59 69.02L73.85 69.79L73.46 69.79L73.37 70.25L73.02 69.88L72.47 70.07L72.95 70.19L72.95 70.59L72.45 70.78L71.67 70.27L71.69 70.79L71.35 70.90L71.59 71.26L71.22 71.20L71.11 71.62L70.78 71.21L69.97 71.99L67.89 76.33L66.00 75.99L65.88 75.34L65.07 75.07L64.61 74.04L63.70 73.57L63.61 72.31ZM85.85 37.69L86.11 38.09L85.38 38.32L84.91 37.96L85.85 37.69ZM90.33 57.59L89.92 57.95L89.60 57.52L90.33 57.59Z"/>
      <path data-pref="25" d="M61.92 27.75L62.37 27.80L62.58 26.98L63.61 27.03L63.84 27.51L64.62 27.25L65.24 26.45L65.96 23.85L67.09 24.83L67.75 24.69L68.29 23.58L69.48 23.67L69.84 23.26L70.43 23.60L70.65 22.02L72.15 22.53L72.37 21.64L71.22 19.48L71.65 18.67L72.59 18.49L73.34 19.12L74.75 19.46L75.18 19.74L75.40 20.93L76.34 21.05L76.19 23.07L76.73 23.00L76.94 23.39L77.65 22.70L78.42 23.57L78.56 24.05L78.07 24.80L78.94 25.42L78.72 26.82L79.60 27.67L78.77 28.20L78.97 28.92L78.16 30.64L78.32 31.53L77.82 31.96L78.81 32.69L78.64 33.58L79.88 34.33L79.39 35.25L79.71 35.44L79.53 37.15L78.90 37.63L78.80 39.64L77.68 40.75L77.48 41.82L74.36 43.20L72.44 42.36L71.13 42.46L70.58 41.91L69.89 42.62L71.01 43.08L69.91 43.79L69.97 44.56L67.89 45.02L68.32 44.25L67.77 44.12L67.63 43.58L66.80 43.77L66.54 43.32L66.12 43.38L65.98 42.17L64.83 42.81L63.97 42.19L64.29 40.58L63.51 39.31L62.90 39.31L63.13 38.95L62.71 38.67L63.08 38.40L62.58 37.70L63.14 37.32L63.68 34.57L62.96 32.60L63.81 30.78L63.02 30.98L62.42 29.81L61.19 28.99L61.92 27.75Z"/>
      <path data-pref="26" d="M37.08 20.95L37.02 19.78L37.37 20.16L38.98 19.97L40.12 18.83L41.33 18.83L42.74 17.92L42.85 17.44L44.27 16.92L46.06 16.74L46.56 16.29L47.38 16.87L48.30 17.85L48.27 18.46L48.86 18.77L48.73 19.69L48.31 19.32L47.78 19.56L47.14 20.92L45.74 22.37L45.75 23.33L46.16 23.20L46.05 22.73L46.69 21.94L47.42 21.56L47.31 22.39L47.94 22.67L47.16 22.65L47.14 23.40L48.33 23.99L49.47 23.95L49.09 25.87L49.91 25.17L49.91 24.62L50.76 24.71L50.59 25.12L51.29 25.06L51.25 24.00L49.85 24.32L49.79 22.93L49.96 23.18L52.06 22.50L52.26 21.79L53.03 21.42L52.76 22.47L53.69 22.75L52.97 23.07L52.68 23.76L53.38 24.30L52.95 25.39L53.97 26.26L53.95 26.63L54.74 26.76L54.83 27.96L57.90 28.33L59.49 29.01L61.32 28.65L61.19 28.99L62.42 29.81L63.02 30.98L63.75 30.60L62.96 32.60L63.69 34.39L63.14 37.32L62.58 37.70L63.08 38.40L62.71 38.67L63.13 38.95L62.90 39.31L63.51 39.31L64.29 40.58L63.97 42.19L64.83 42.81L65.98 42.17L66.12 43.38L66.54 43.32L66.80 43.77L67.72 43.64L67.72 44.07L68.35 44.33L67.87 44.87L68.49 45.51L68.36 46.14L69.08 46.69L68.36 47.63L67.21 47.37L66.92 46.61L65.57 46.63L65.57 46.13L64.61 47.56L60.96 47.01L60.24 45.54L60.68 44.76L59.35 43.48L58.92 42.52L59.64 41.73L58.84 41.56L58.51 41.88L57.60 40.94L56.76 41.15L57.23 40.18L56.31 39.74L55.60 40.86L56.22 40.89L56.01 41.49L55.19 41.52L54.42 40.69L53.79 40.75L53.72 39.28L50.87 38.75L50.51 37.48L51.44 36.44L51.04 36.21L51.07 35.29L49.82 35.08L49.74 34.67L48.17 34.81L48.37 34.09L47.94 33.88L46.83 33.87L46.12 34.35L45.59 34.03L45.85 33.12L44.74 32.44L45.03 32.03L44.81 31.46L43.48 31.27L42.36 32.12L42.06 31.34L40.80 31.17L40.50 30.55L38.52 29.96L38.32 28.40L38.74 27.15L39.41 27.10L40.25 27.77L41.84 27.15L41.42 24.52L41.66 23.85L41.34 23.28L38.54 24.08L38.21 23.14L36.58 21.87L37.08 20.95ZM59.89 41.99L60.01 42.09L60.00 42.18L59.93 42.21L59.94 42.16L59.89 41.99ZM60.01 42.34L60.02 42.29L60.04 42.29L60.07 42.33L60.01 42.34ZM60.22 42.44L60.24 42.40L60.29 42.43L60.34 42.61L60.22 42.44ZM62.88 43.01L62.94 42.97L62.96 42.99L63.01 43.04L63.06 43.19L62.97 43.14L62.92 43.14L62.88 43.01Z"/>
      <path data-pref="27" d="M43.05 59.15L46.43 58.18L48.09 56.71L48.59 57.01L48.49 56.13L50.08 55.09L50.60 54.48L50.44 54.22L50.70 54.43L50.77 53.33L50.46 53.15L50.77 52.72L50.58 52.99L50.80 53.21L50.87 52.91L51.09 53.49L51.63 52.98L52.95 53.12L52.37 52.46L52.59 51.99L51.60 51.81L51.42 50.73L51.92 51.62L52.06 51.03L52.77 51.76L52.71 51.21L53.15 51.18L52.04 50.92L51.99 50.58L52.58 50.78L51.99 50.18L52.24 50.35L52.47 49.97L52.63 50.30L52.73 49.41L51.91 48.97L52.06 48.75L51.57 48.63L52.00 48.01L51.43 48.01L52.97 46.84L52.47 45.15L51.78 44.32L51.80 43.37L52.16 43.27L52.56 42.01L52.18 42.19L51.85 41.71L53.16 41.13L51.14 40.76L49.88 40.06L50.24 39.56L50.11 38.34L49.47 38.04L50.21 37.59L50.82 37.99L50.87 38.75L53.72 39.28L53.54 40.52L54.42 40.69L55.19 41.52L56.24 41.28L56.22 40.89L55.60 40.86L56.18 40.34L56.04 39.88L57.11 39.88L56.76 41.15L57.92 41.10L60.70 44.94L60.24 45.54L59.77 45.44L59.38 46.53L59.57 47.11L58.73 47.76L58.87 48.42L58.13 50.48L58.80 50.69L58.97 51.17L58.13 52.34L58.84 52.93L59.04 54.08L59.10 55.09L58.52 55.87L58.80 56.59L58.14 57.06L55.87 57.40L54.27 58.43L53.65 57.66L51.27 58.60L49.68 58.47L49.46 59.01L48.46 59.51L48.17 58.97L46.62 59.47L46.15 59.26L46.07 59.82L44.67 60.25L44.53 59.97L43.54 60.31L43.14 59.61L43.39 59.26L43.05 59.15ZM51.74 49.22L51.91 48.97L51.91 48.97L51.74 49.22Z"/>
      <path data-pref="28" d="M20.58 42.41L20.70 38.42L24.62 34.47L24.60 33.61L23.82 33.37L23.77 32.68L27.40 30.95L23.47 21.10L34.14 19.34L36.87 19.80L37.08 20.95L36.58 21.87L38.21 23.14L38.54 24.08L41.48 23.28L41.84 27.15L40.25 27.77L39.41 27.10L38.74 27.15L38.32 28.40L38.39 29.81L42.36 32.12L43.48 31.27L44.81 31.46L46.12 34.35L51.07 35.29L51.33 36.82L49.47 38.04L50.11 38.34L50.24 39.56L49.88 40.06L53.17 41.23L51.85 41.71L52.96 46.31L52.62 47.24L50.71 48.49L51.39 47.83L50.57 48.37L49.62 47.06L48.50 47.24L42.14 49.99L31.20 45.23L26.29 46.20L26.07 44.64L24.58 47.00L22.16 47.17Z"/>
      <path data-pref="28" d="M32.04 58.60L37.28 52.95L41.08 51.00L37.68 56.04L37.69 58.20L38.21 58.43L39.23 60.45L35.00 62.43L33.20 62.74L33.23 62.22L32.40 61.80L32.99 60.81L31.27 61.21L31.72 60.74L31.18 59.66Z"/>
      <path data-pref="29" d="M56.51 63.90L57.35 63.59L57.97 62.75L57.69 62.30L58.05 61.87L58.81 61.73L59.67 62.17L60.27 61.59L59.88 60.50L58.74 60.06L58.14 57.06L58.80 56.59L58.52 55.87L59.10 55.09L58.84 52.93L58.13 52.34L58.97 51.17L58.80 50.69L58.13 50.48L58.87 48.42L58.73 47.76L59.57 47.11L59.38 46.53L59.77 45.44L60.24 45.54L60.96 47.01L63.49 47.64L64.61 47.56L65.57 46.13L65.57 46.63L66.92 46.61L67.21 47.37L67.97 47.58L68.36 47.63L69.08 46.69L69.48 47.41L69.03 47.66L69.90 48.50L69.31 49.21L68.68 48.88L69.55 49.66L68.84 50.72L68.93 51.31L70.68 52.31L71.80 51.94L72.11 53.07L73.44 52.83L73.40 53.56L73.78 53.82L73.16 55.15L70.18 55.54L69.45 56.76L70.34 58.43L71.08 59.03L70.15 59.46L71.14 60.90L70.57 61.56L70.74 62.05L70.11 62.54L70.68 63.60L70.27 64.79L70.79 65.85L70.10 65.84L70.38 67.51L68.09 67.21L67.18 68.48L65.61 68.81L64.70 69.77L65.12 70.64L64.70 70.59L64.73 71.00L63.94 70.59L63.82 71.55L64.40 71.80L64.12 72.38L63.47 71.30L62.40 70.99L60.98 71.61L59.11 71.06L57.26 72.00L57.35 71.23L56.75 70.94L57.23 69.59L57.74 69.70L57.73 68.52L57.35 67.98L56.64 67.92L56.74 67.33L56.22 66.59L55.13 66.06L56.51 63.90ZM59.58 51.76L59.79 51.24L60.19 51.40L60.00 52.15L59.63 52.24L59.58 51.76ZM60.54 50.81L61.12 50.20L61.29 50.82L62.03 51.00L62.01 51.68L61.18 51.86L60.54 50.81Z"/>
      <path data-pref="30" d="M42.06 71.54L42.17 71.01L42.78 70.85L42.37 70.27L43.63 69.43L42.71 69.54L42.83 69.17L42.36 68.95L44.59 68.06L44.29 67.70L45.22 67.32L44.20 66.37L42.66 66.11L43.54 65.39L43.65 64.75L44.44 65.01L43.89 64.29L45.09 64.36L46.18 63.82L45.50 63.92L45.74 63.64L45.39 62.81L45.32 63.13L44.36 62.79L44.23 62.38L44.58 62.41L44.26 61.67L43.96 61.58L43.78 61.15L42.18 60.56L42.52 59.37L43.32 59.19L43.14 59.61L43.54 60.31L44.53 59.97L44.67 60.25L46.07 59.82L46.15 59.26L46.62 59.47L48.17 58.97L48.46 59.51L49.46 59.01L49.68 58.47L51.27 58.60L53.65 57.66L54.27 58.43L56.21 57.26L58.14 57.06L58.74 60.06L59.88 60.50L60.27 61.59L59.67 62.17L58.81 61.73L58.05 61.87L57.69 62.30L57.97 62.75L57.35 63.59L56.51 63.90L56.13 64.90L55.32 65.34L55.13 66.06L56.56 66.93L56.64 67.92L57.35 67.98L57.80 68.79L57.74 69.70L57.23 69.59L56.78 71.10L57.35 71.23L57.26 72.00L59.11 71.06L60.98 71.61L62.40 70.99L63.47 71.30L63.70 73.57L64.61 74.04L65.07 75.07L65.88 75.34L66.00 75.99L67.89 76.33L66.88 77.64L66.89 78.13L67.28 78.17L67.02 78.51L65.85 78.76L66.12 79.14L65.73 79.40L65.46 80.06L65.95 80.69L64.61 81.23L65.53 81.12L64.28 82.03L62.13 82.89L61.68 83.84L62.12 84.46L61.36 84.41L61.16 84.81L60.85 84.29L61.52 83.88L61.08 83.32L59.69 83.50L59.48 83.05L58.49 83.14L57.58 82.61L56.52 82.64L56.56 82.92L55.97 82.37L54.36 82.12L53.72 81.39L52.61 81.42L52.63 80.98L51.13 80.21L51.16 78.79L49.46 77.89L49.83 77.54L49.60 77.18L50.13 77.16L50.26 77.69L50.74 77.50L51.35 76.42L50.11 76.25L50.11 75.73L49.41 75.80L48.94 74.99L46.87 74.64L46.89 74.15L45.56 73.54L44.42 71.66L42.06 71.54ZM43.24 61.37L43.96 61.58L43.98 61.62L43.24 61.37ZM66.12 79.14L66.24 79.06L66.28 79.38L66.12 79.14Z"/>
  </g>
  <g class="map-borders map-focus" fill="none" stroke="#ffffff" stroke-width="0.75" stroke-linejoin="round" stroke-linecap="round">
      <path data-pref="24" d="M63.61 72.31L63.83 71.87L64.12 72.38L64.76 72.09L64.92 71.66L64.67 71.36L64.56 71.72L64.30 70.93L64.73 71.00L64.70 70.59L65.76 70.69L65.36 70.53L65.63 69.98L66.74 70.33L66.95 69.24L67.56 69.55L67.89 69.24L67.46 68.25L68.09 67.21L70.38 67.51L70.10 65.84L70.79 65.85L70.27 64.79L70.68 63.60L70.11 62.54L70.74 62.05L70.57 61.56L71.14 60.90L70.15 59.46L71.08 59.03L70.34 58.43L69.45 56.76L70.18 55.54L73.16 55.15L73.78 53.82L73.40 53.56L73.44 52.83L72.11 53.07L71.80 51.94L70.68 52.31L68.93 51.31L68.84 50.72L69.55 49.66L68.68 48.88L69.31 49.21L69.90 48.50L69.03 47.66L69.42 47.15L68.36 46.14L68.49 45.51L68.14 45.20L70.03 44.48L69.91 43.79L71.01 43.08L69.89 42.62L70.58 41.91L71.13 42.46L72.44 42.36L74.36 43.20L77.48 41.82L77.68 40.75L78.80 39.64L78.90 37.63L79.53 37.15L79.71 35.44L79.39 35.25L79.88 34.33L78.64 33.58L78.81 32.69L79.27 32.36L79.55 32.71L80.21 32.11L81.33 32.15L82.03 31.55L82.42 32.62L83.88 33.85L84.26 34.68L85.05 34.82L85.07 34.21L85.70 35.15L87.80 36.64L88.49 38.34L87.86 37.97L85.21 39.25L84.72 40.51L85.63 40.89L85.10 40.95L84.50 42.88L82.03 46.26L81.76 48.42L82.66 48.64L82.30 50.08L81.87 50.41L82.80 50.30L84.98 51.00L85.58 51.92L88.61 53.39L89.50 53.41L89.66 54.08L90.07 53.47L90.56 54.48L91.33 54.41L91.00 54.82L91.52 55.17L91.28 55.74L91.85 55.01L92.57 55.26L92.70 56.18L92.21 56.62L92.28 57.28L91.61 56.80L91.42 57.14L91.10 56.91L91.29 57.43L90.78 57.64L90.54 57.62L90.62 57.85L90.98 57.63L91.01 58.24L92.16 57.58L91.34 58.43L91.94 60.19L91.12 60.28L90.52 61.05L88.32 60.65L87.90 60.38L88.42 60.12L89.55 60.55L89.96 60.30L90.04 60.70L90.59 60.27L90.83 60.50L90.83 60.11L90.06 60.22L90.15 59.74L91.04 59.89L89.97 59.46L90.53 59.10L89.37 59.23L89.38 58.68L89.03 59.23L89.52 59.57L89.02 59.84L88.51 59.57L88.62 59.05L88.20 59.04L87.96 59.54L88.25 59.72L87.17 59.37L86.26 59.96L86.38 58.95L86.77 58.99L86.64 58.67L86.96 58.81L87.26 58.26L86.69 58.43L86.74 58.07L86.34 58.08L86.05 58.80L86.28 58.18L85.44 58.17L85.78 58.77L84.84 59.25L85.90 59.01L85.43 59.80L83.95 60.71L83.45 60.73L83.30 60.28L83.06 60.22L83.69 60.04L83.57 59.65L82.75 60.21L82.42 60.03L82.68 60.43L82.42 60.95L82.21 60.15L81.84 60.68L81.94 60.28L81.23 60.14L81.59 61.29L81.14 60.71L80.86 60.89L81.23 61.14L80.70 61.26L81.34 61.55L80.62 61.84L80.13 61.48L80.20 60.76L79.52 61.02L79.88 61.17L79.79 61.84L78.38 62.33L78.41 61.86L77.97 61.93L77.39 62.74L77.15 62.07L76.30 62.53L76.70 62.50L76.57 62.99L75.80 62.99L75.37 63.68L75.12 63.53L75.31 64.84L76.12 64.91L75.64 65.73L75.46 65.42L74.82 65.87L74.98 65.27L74.33 65.49L75.05 64.69L74.85 64.49L73.74 65.33L73.98 65.73L73.05 66.01L73.23 66.42L74.40 66.45L74.19 67.12L75.22 67.68L74.16 67.83L74.94 68.11L74.55 68.31L74.93 69.04L74.04 69.15L73.95 68.84L74.42 68.72L73.29 68.27L73.41 68.72L72.78 69.08L73.59 69.02L73.85 69.79L73.46 69.79L73.37 70.25L73.02 69.88L72.47 70.07L72.95 70.19L72.95 70.59L72.45 70.78L71.67 70.27L71.69 70.79L71.35 70.90L71.59 71.26L71.22 71.20L71.11 71.62L70.78 71.21L69.97 71.99L67.89 76.33L66.00 75.99L65.88 75.34L65.07 75.07L64.61 74.04L63.70 73.57L63.61 72.31ZM85.85 37.69L86.11 38.09L85.38 38.32L84.91 37.96L85.85 37.69ZM90.33 57.59L89.92 57.95L89.60 57.52L90.33 57.59Z"/>
      <path data-pref="25" d="M61.92 27.75L62.37 27.80L62.58 26.98L63.61 27.03L63.84 27.51L64.62 27.25L65.24 26.45L65.96 23.85L67.09 24.83L67.75 24.69L68.29 23.58L69.48 23.67L69.84 23.26L70.43 23.60L70.65 22.02L72.15 22.53L72.37 21.64L71.22 19.48L71.65 18.67L72.59 18.49L73.34 19.12L74.75 19.46L75.18 19.74L75.40 20.93L76.34 21.05L76.19 23.07L76.73 23.00L76.94 23.39L77.65 22.70L78.42 23.57L78.56 24.05L78.07 24.80L78.94 25.42L78.72 26.82L79.60 27.67L78.77 28.20L78.97 28.92L78.16 30.64L78.32 31.53L77.82 31.96L78.81 32.69L78.64 33.58L79.88 34.33L79.39 35.25L79.71 35.44L79.53 37.15L78.90 37.63L78.80 39.64L77.68 40.75L77.48 41.82L74.36 43.20L72.44 42.36L71.13 42.46L70.58 41.91L69.89 42.62L71.01 43.08L69.91 43.79L69.97 44.56L67.89 45.02L68.32 44.25L67.77 44.12L67.63 43.58L66.80 43.77L66.54 43.32L66.12 43.38L65.98 42.17L64.83 42.81L63.97 42.19L64.29 40.58L63.51 39.31L62.90 39.31L63.13 38.95L62.71 38.67L63.08 38.40L62.58 37.70L63.14 37.32L63.68 34.57L62.96 32.60L63.81 30.78L63.02 30.98L62.42 29.81L61.19 28.99L61.92 27.75Z"/>
      <path data-pref="26" d="M37.08 20.95L37.02 19.78L37.37 20.16L38.98 19.97L40.12 18.83L41.33 18.83L42.74 17.92L42.85 17.44L44.27 16.92L46.06 16.74L46.56 16.29L47.38 16.87L48.30 17.85L48.27 18.46L48.86 18.77L48.73 19.69L48.31 19.32L47.78 19.56L47.14 20.92L45.74 22.37L45.75 23.33L46.16 23.20L46.05 22.73L46.69 21.94L47.42 21.56L47.31 22.39L47.94 22.67L47.16 22.65L47.14 23.40L48.33 23.99L49.47 23.95L49.09 25.87L49.91 25.17L49.91 24.62L50.76 24.71L50.59 25.12L51.29 25.06L51.25 24.00L49.85 24.32L49.79 22.93L49.96 23.18L52.06 22.50L52.26 21.79L53.03 21.42L52.76 22.47L53.69 22.75L52.97 23.07L52.68 23.76L53.38 24.30L52.95 25.39L53.97 26.26L53.95 26.63L54.74 26.76L54.83 27.96L57.90 28.33L59.49 29.01L61.32 28.65L61.19 28.99L62.42 29.81L63.02 30.98L63.75 30.60L62.96 32.60L63.69 34.39L63.14 37.32L62.58 37.70L63.08 38.40L62.71 38.67L63.13 38.95L62.90 39.31L63.51 39.31L64.29 40.58L63.97 42.19L64.83 42.81L65.98 42.17L66.12 43.38L66.54 43.32L66.80 43.77L67.72 43.64L67.72 44.07L68.35 44.33L67.87 44.87L68.49 45.51L68.36 46.14L69.08 46.69L68.36 47.63L67.21 47.37L66.92 46.61L65.57 46.63L65.57 46.13L64.61 47.56L60.96 47.01L60.24 45.54L60.68 44.76L59.35 43.48L58.92 42.52L59.64 41.73L58.84 41.56L58.51 41.88L57.60 40.94L56.76 41.15L57.23 40.18L56.31 39.74L55.60 40.86L56.22 40.89L56.01 41.49L55.19 41.52L54.42 40.69L53.79 40.75L53.72 39.28L50.87 38.75L50.51 37.48L51.44 36.44L51.04 36.21L51.07 35.29L49.82 35.08L49.74 34.67L48.17 34.81L48.37 34.09L47.94 33.88L46.83 33.87L46.12 34.35L45.59 34.03L45.85 33.12L44.74 32.44L45.03 32.03L44.81 31.46L43.48 31.27L42.36 32.12L42.06 31.34L40.80 31.17L40.50 30.55L38.52 29.96L38.32 28.40L38.74 27.15L39.41 27.10L40.25 27.77L41.84 27.15L41.42 24.52L41.66 23.85L41.34 23.28L38.54 24.08L38.21 23.14L36.58 21.87L37.08 20.95ZM59.89 41.99L60.01 42.09L60.00 42.18L59.93 42.21L59.94 42.16L59.89 41.99ZM60.01 42.34L60.02 42.29L60.04 42.29L60.07 42.33L60.01 42.34ZM60.22 42.44L60.24 42.40L60.29 42.43L60.34 42.61L60.22 42.44ZM62.88 43.01L62.94 42.97L62.96 42.99L63.01 43.04L63.06 43.19L62.97 43.14L62.92 43.14L62.88 43.01Z"/>
      <path data-pref="27" d="M43.05 59.15L46.43 58.18L48.09 56.71L48.59 57.01L48.49 56.13L50.08 55.09L50.60 54.48L50.44 54.22L50.70 54.43L50.77 53.33L50.46 53.15L50.77 52.72L50.58 52.99L50.80 53.21L50.87 52.91L51.09 53.49L51.63 52.98L52.95 53.12L52.37 52.46L52.59 51.99L51.60 51.81L51.42 50.73L51.92 51.62L52.06 51.03L52.77 51.76L52.71 51.21L53.15 51.18L52.04 50.92L51.99 50.58L52.58 50.78L51.99 50.18L52.24 50.35L52.47 49.97L52.63 50.30L52.73 49.41L51.91 48.97L52.06 48.75L51.57 48.63L52.00 48.01L51.43 48.01L52.97 46.84L52.47 45.15L51.78 44.32L51.80 43.37L52.16 43.27L52.56 42.01L52.18 42.19L51.85 41.71L53.16 41.13L51.14 40.76L49.88 40.06L50.24 39.56L50.11 38.34L49.47 38.04L50.21 37.59L50.82 37.99L50.87 38.75L53.72 39.28L53.54 40.52L54.42 40.69L55.19 41.52L56.24 41.28L56.22 40.89L55.60 40.86L56.18 40.34L56.04 39.88L57.11 39.88L56.76 41.15L57.92 41.10L60.70 44.94L60.24 45.54L59.77 45.44L59.38 46.53L59.57 47.11L58.73 47.76L58.87 48.42L58.13 50.48L58.80 50.69L58.97 51.17L58.13 52.34L58.84 52.93L59.04 54.08L59.10 55.09L58.52 55.87L58.80 56.59L58.14 57.06L55.87 57.40L54.27 58.43L53.65 57.66L51.27 58.60L49.68 58.47L49.46 59.01L48.46 59.51L48.17 58.97L46.62 59.47L46.15 59.26L46.07 59.82L44.67 60.25L44.53 59.97L43.54 60.31L43.14 59.61L43.39 59.26L43.05 59.15ZM51.74 49.22L51.91 48.97L51.91 48.97L51.74 49.22Z"/>
      <path data-pref="28" d="M20.58 42.41L20.70 38.42L24.62 34.47L24.60 33.61L23.82 33.37L23.77 32.68L27.40 30.95L23.47 21.10L34.14 19.34L36.87 19.80L37.08 20.95L36.58 21.87L38.21 23.14L38.54 24.08L41.48 23.28L41.84 27.15L40.25 27.77L39.41 27.10L38.74 27.15L38.32 28.40L38.39 29.81L42.36 32.12L43.48 31.27L44.81 31.46L46.12 34.35L51.07 35.29L51.33 36.82L49.47 38.04L50.11 38.34L50.24 39.56L49.88 40.06L53.17 41.23L51.85 41.71L52.96 46.31L52.62 47.24L50.71 48.49L51.39 47.83L50.57 48.37L49.62 47.06L48.50 47.24L42.14 49.99L31.20 45.23L26.29 46.20L26.07 44.64L24.58 47.00L22.16 47.17Z"/>
      <path data-pref="28" d="M32.04 58.60L37.28 52.95L41.08 51.00L37.68 56.04L37.69 58.20L38.21 58.43L39.23 60.45L35.00 62.43L33.20 62.74L33.23 62.22L32.40 61.80L32.99 60.81L31.27 61.21L31.72 60.74L31.18 59.66Z"/>
      <path data-pref="29" d="M56.51 63.90L57.35 63.59L57.97 62.75L57.69 62.30L58.05 61.87L58.81 61.73L59.67 62.17L60.27 61.59L59.88 60.50L58.74 60.06L58.14 57.06L58.80 56.59L58.52 55.87L59.10 55.09L58.84 52.93L58.13 52.34L58.97 51.17L58.80 50.69L58.13 50.48L58.87 48.42L58.73 47.76L59.57 47.11L59.38 46.53L59.77 45.44L60.24 45.54L60.96 47.01L63.49 47.64L64.61 47.56L65.57 46.13L65.57 46.63L66.92 46.61L67.21 47.37L67.97 47.58L68.36 47.63L69.08 46.69L69.48 47.41L69.03 47.66L69.90 48.50L69.31 49.21L68.68 48.88L69.55 49.66L68.84 50.72L68.93 51.31L70.68 52.31L71.80 51.94L72.11 53.07L73.44 52.83L73.40 53.56L73.78 53.82L73.16 55.15L70.18 55.54L69.45 56.76L70.34 58.43L71.08 59.03L70.15 59.46L71.14 60.90L70.57 61.56L70.74 62.05L70.11 62.54L70.68 63.60L70.27 64.79L70.79 65.85L70.10 65.84L70.38 67.51L68.09 67.21L67.18 68.48L65.61 68.81L64.70 69.77L65.12 70.64L64.70 70.59L64.73 71.00L63.94 70.59L63.82 71.55L64.40 71.80L64.12 72.38L63.47 71.30L62.40 70.99L60.98 71.61L59.11 71.06L57.26 72.00L57.35 71.23L56.75 70.94L57.23 69.59L57.74 69.70L57.73 68.52L57.35 67.98L56.64 67.92L56.74 67.33L56.22 66.59L55.13 66.06L56.51 63.90ZM59.58 51.76L59.79 51.24L60.19 51.40L60.00 52.15L59.63 52.24L59.58 51.76ZM60.54 50.81L61.12 50.20L61.29 50.82L62.03 51.00L62.01 51.68L61.18 51.86L60.54 50.81Z"/>
      <path data-pref="30" d="M42.06 71.54L42.17 71.01L42.78 70.85L42.37 70.27L43.63 69.43L42.71 69.54L42.83 69.17L42.36 68.95L44.59 68.06L44.29 67.70L45.22 67.32L44.20 66.37L42.66 66.11L43.54 65.39L43.65 64.75L44.44 65.01L43.89 64.29L45.09 64.36L46.18 63.82L45.50 63.92L45.74 63.64L45.39 62.81L45.32 63.13L44.36 62.79L44.23 62.38L44.58 62.41L44.26 61.67L43.96 61.58L43.78 61.15L42.18 60.56L42.52 59.37L43.32 59.19L43.14 59.61L43.54 60.31L44.53 59.97L44.67 60.25L46.07 59.82L46.15 59.26L46.62 59.47L48.17 58.97L48.46 59.51L49.46 59.01L49.68 58.47L51.27 58.60L53.65 57.66L54.27 58.43L56.21 57.26L58.14 57.06L58.74 60.06L59.88 60.50L60.27 61.59L59.67 62.17L58.81 61.73L58.05 61.87L57.69 62.30L57.97 62.75L57.35 63.59L56.51 63.90L56.13 64.90L55.32 65.34L55.13 66.06L56.56 66.93L56.64 67.92L57.35 67.98L57.80 68.79L57.74 69.70L57.23 69.59L56.78 71.10L57.35 71.23L57.26 72.00L59.11 71.06L60.98 71.61L62.40 70.99L63.47 71.30L63.70 73.57L64.61 74.04L65.07 75.07L65.88 75.34L66.00 75.99L67.89 76.33L66.88 77.64L66.89 78.13L67.28 78.17L67.02 78.51L65.85 78.76L66.12 79.14L65.73 79.40L65.46 80.06L65.95 80.69L64.61 81.23L65.53 81.12L64.28 82.03L62.13 82.89L61.68 83.84L62.12 84.46L61.36 84.41L61.16 84.81L60.85 84.29L61.52 83.88L61.08 83.32L59.69 83.50L59.48 83.05L58.49 83.14L57.58 82.61L56.52 82.64L56.56 82.92L55.97 82.37L54.36 82.12L53.72 81.39L52.61 81.42L52.63 80.98L51.13 80.21L51.16 78.79L49.46 77.89L49.83 77.54L49.60 77.18L50.13 77.16L50.26 77.69L50.74 77.50L51.35 76.42L50.11 76.25L50.11 75.73L49.41 75.80L48.94 74.99L46.87 74.64L46.89 74.15L45.56 73.54L44.42 71.66L42.06 71.54ZM43.24 61.37L43.96 61.58L43.98 61.62L43.24 61.37ZM66.12 79.14L66.24 79.06L66.28 79.38L66.12 79.14Z"/>
  </g>
  <g class="map-fills map-focus map-fills-cover" data-region="KINKI" fill="#76c85a" fill-rule="evenodd" stroke="none">
      <path data-pref="24" d="M63.61 72.31L63.83 71.87L64.12 72.38L64.76 72.09L64.92 71.66L64.67 71.36L64.56 71.72L64.30 70.93L64.73 71.00L64.70 70.59L65.76 70.69L65.36 70.53L65.63 69.98L66.74 70.33L66.95 69.24L67.56 69.55L67.89 69.24L67.46 68.25L68.09 67.21L70.38 67.51L70.10 65.84L70.79 65.85L70.27 64.79L70.68 63.60L70.11 62.54L70.74 62.05L70.57 61.56L71.14 60.90L70.15 59.46L71.08 59.03L70.34 58.43L69.45 56.76L70.18 55.54L73.16 55.15L73.78 53.82L73.40 53.56L73.44 52.83L72.11 53.07L71.80 51.94L70.68 52.31L68.93 51.31L68.84 50.72L69.55 49.66L68.68 48.88L69.31 49.21L69.90 48.50L69.03 47.66L69.42 47.15L68.36 46.14L68.49 45.51L68.14 45.20L70.03 44.48L69.91 43.79L71.01 43.08L69.89 42.62L70.58 41.91L71.13 42.46L72.44 42.36L74.36 43.20L77.48 41.82L77.68 40.75L78.80 39.64L78.90 37.63L79.53 37.15L79.71 35.44L79.39 35.25L79.88 34.33L78.64 33.58L78.81 32.69L79.27 32.36L79.55 32.71L80.21 32.11L81.33 32.15L82.03 31.55L82.42 32.62L83.88 33.85L84.26 34.68L85.05 34.82L85.07 34.21L85.70 35.15L87.80 36.64L88.49 38.34L87.86 37.97L85.21 39.25L84.72 40.51L85.63 40.89L85.10 40.95L84.50 42.88L82.03 46.26L81.76 48.42L82.66 48.64L82.30 50.08L81.87 50.41L82.80 50.30L84.98 51.00L85.58 51.92L88.61 53.39L89.50 53.41L89.66 54.08L90.07 53.47L90.56 54.48L91.33 54.41L91.00 54.82L91.52 55.17L91.28 55.74L91.85 55.01L92.57 55.26L92.70 56.18L92.21 56.62L92.28 57.28L91.61 56.80L91.42 57.14L91.10 56.91L91.29 57.43L90.78 57.64L90.54 57.62L90.62 57.85L90.98 57.63L91.01 58.24L92.16 57.58L91.34 58.43L91.94 60.19L91.12 60.28L90.52 61.05L88.32 60.65L87.90 60.38L88.42 60.12L89.55 60.55L89.96 60.30L90.04 60.70L90.59 60.27L90.83 60.50L90.83 60.11L90.06 60.22L90.15 59.74L91.04 59.89L89.97 59.46L90.53 59.10L89.37 59.23L89.38 58.68L89.03 59.23L89.52 59.57L89.02 59.84L88.51 59.57L88.62 59.05L88.20 59.04L87.96 59.54L88.25 59.72L87.17 59.37L86.26 59.96L86.38 58.95L86.77 58.99L86.64 58.67L86.96 58.81L87.26 58.26L86.69 58.43L86.74 58.07L86.34 58.08L86.05 58.80L86.28 58.18L85.44 58.17L85.78 58.77L84.84 59.25L85.90 59.01L85.43 59.80L83.95 60.71L83.45 60.73L83.30 60.28L83.06 60.22L83.69 60.04L83.57 59.65L82.75 60.21L82.42 60.03L82.68 60.43L82.42 60.95L82.21 60.15L81.84 60.68L81.94 60.28L81.23 60.14L81.59 61.29L81.14 60.71L80.86 60.89L81.23 61.14L80.70 61.26L81.34 61.55L80.62 61.84L80.13 61.48L80.20 60.76L79.52 61.02L79.88 61.17L79.79 61.84L78.38 62.33L78.41 61.86L77.97 61.93L77.39 62.74L77.15 62.07L76.30 62.53L76.70 62.50L76.57 62.99L75.80 62.99L75.37 63.68L75.12 63.53L75.31 64.84L76.12 64.91L75.64 65.73L75.46 65.42L74.82 65.87L74.98 65.27L74.33 65.49L75.05 64.69L74.85 64.49L73.74 65.33L73.98 65.73L73.05 66.01L73.23 66.42L74.40 66.45L74.19 67.12L75.22 67.68L74.16 67.83L74.94 68.11L74.55 68.31L74.93 69.04L74.04 69.15L73.95 68.84L74.42 68.72L73.29 68.27L73.41 68.72L72.78 69.08L73.59 69.02L73.85 69.79L73.46 69.79L73.37 70.25L73.02 69.88L72.47 70.07L72.95 70.19L72.95 70.59L72.45 70.78L71.67 70.27L71.69 70.79L71.35 70.90L71.59 71.26L71.22 71.20L71.11 71.62L70.78 71.21L69.97 71.99L67.89 76.33L66.00 75.99L65.88 75.34L65.07 75.07L64.61 74.04L63.70 73.57L63.61 72.31ZM85.85 37.69L86.11 38.09L85.38 38.32L84.91 37.96L85.85 37.69ZM90.33 57.59L89.92 57.95L89.60 57.52L90.33 57.59Z"/>
      <path data-pref="25" d="M61.92 27.75L62.37 27.80L62.58 26.98L63.61 27.03L63.84 27.51L64.62 27.25L65.24 26.45L65.96 23.85L67.09 24.83L67.75 24.69L68.29 23.58L69.48 23.67L69.84 23.26L70.43 23.60L70.65 22.02L72.15 22.53L72.37 21.64L71.22 19.48L71.65 18.67L72.59 18.49L73.34 19.12L74.75 19.46L75.18 19.74L75.40 20.93L76.34 21.05L76.19 23.07L76.73 23.00L76.94 23.39L77.65 22.70L78.42 23.57L78.56 24.05L78.07 24.80L78.94 25.42L78.72 26.82L79.60 27.67L78.77 28.20L78.97 28.92L78.16 30.64L78.32 31.53L77.82 31.96L78.81 32.69L78.64 33.58L79.88 34.33L79.39 35.25L79.71 35.44L79.53 37.15L78.90 37.63L78.80 39.64L77.68 40.75L77.48 41.82L74.36 43.20L72.44 42.36L71.13 42.46L70.58 41.91L69.89 42.62L71.01 43.08L69.91 43.79L69.97 44.56L67.89 45.02L68.32 44.25L67.77 44.12L67.63 43.58L66.80 43.77L66.54 43.32L66.12 43.38L65.98 42.17L64.83 42.81L63.97 42.19L64.29 40.58L63.51 39.31L62.90 39.31L63.13 38.95L62.71 38.67L63.08 38.40L62.58 37.70L63.14 37.32L63.68 34.57L62.96 32.60L63.81 30.78L63.02 30.98L62.42 29.81L61.19 28.99L61.92 27.75Z"/>
      <path data-pref="26" d="M37.08 20.95L37.02 19.78L37.37 20.16L38.98 19.97L40.12 18.83L41.33 18.83L42.74 17.92L42.85 17.44L44.27 16.92L46.06 16.74L46.56 16.29L47.38 16.87L48.30 17.85L48.27 18.46L48.86 18.77L48.73 19.69L48.31 19.32L47.78 19.56L47.14 20.92L45.74 22.37L45.75 23.33L46.16 23.20L46.05 22.73L46.69 21.94L47.42 21.56L47.31 22.39L47.94 22.67L47.16 22.65L47.14 23.40L48.33 23.99L49.47 23.95L49.09 25.87L49.91 25.17L49.91 24.62L50.76 24.71L50.59 25.12L51.29 25.06L51.25 24.00L49.85 24.32L49.79 22.93L49.96 23.18L52.06 22.50L52.26 21.79L53.03 21.42L52.76 22.47L53.69 22.75L52.97 23.07L52.68 23.76L53.38 24.30L52.95 25.39L53.97 26.26L53.95 26.63L54.74 26.76L54.83 27.96L57.90 28.33L59.49 29.01L61.32 28.65L61.19 28.99L62.42 29.81L63.02 30.98L63.75 30.60L62.96 32.60L63.69 34.39L63.14 37.32L62.58 37.70L63.08 38.40L62.71 38.67L63.13 38.95L62.90 39.31L63.51 39.31L64.29 40.58L63.97 42.19L64.83 42.81L65.98 42.17L66.12 43.38L66.54 43.32L66.80 43.77L67.72 43.64L67.72 44.07L68.35 44.33L67.87 44.87L68.49 45.51L68.36 46.14L69.08 46.69L68.36 47.63L67.21 47.37L66.92 46.61L65.57 46.63L65.57 46.13L64.61 47.56L60.96 47.01L60.24 45.54L60.68 44.76L59.35 43.48L58.92 42.52L59.64 41.73L58.84 41.56L58.51 41.88L57.60 40.94L56.76 41.15L57.23 40.18L56.31 39.74L55.60 40.86L56.22 40.89L56.01 41.49L55.19 41.52L54.42 40.69L53.79 40.75L53.72 39.28L50.87 38.75L50.51 37.48L51.44 36.44L51.04 36.21L51.07 35.29L49.82 35.08L49.74 34.67L48.17 34.81L48.37 34.09L47.94 33.88L46.83 33.87L46.12 34.35L45.59 34.03L45.85 33.12L44.74 32.44L45.03 32.03L44.81 31.46L43.48 31.27L42.36 32.12L42.06 31.34L40.80 31.17L40.50 30.55L38.52 29.96L38.32 28.40L38.74 27.15L39.41 27.10L40.25 27.77L41.84 27.15L41.42 24.52L41.66 23.85L41.34 23.28L38.54 24.08L38.21 23.14L36.58 21.87L37.08 20.95ZM59.89 41.99L60.01 42.09L60.00 42.18L59.93 42.21L59.94 42.16L59.89 41.99ZM60.01 42.34L60.02 42.29L60.04 42.29L60.07 42.33L60.01 42.34ZM60.22 42.44L60.24 42.40L60.29 42.43L60.34 42.61L60.22 42.44ZM62.88 43.01L62.94 42.97L62.96 42.99L63.01 43.04L63.06 43.19L62.97 43.14L62.92 43.14L62.88 43.01Z"/>
      <path data-pref="27" d="M43.05 59.15L46.43 58.18L48.09 56.71L48.59 57.01L48.49 56.13L50.08 55.09L50.60 54.48L50.44 54.22L50.70 54.43L50.77 53.33L50.46 53.15L50.77 52.72L50.58 52.99L50.80 53.21L50.87 52.91L51.09 53.49L51.63 52.98L52.95 53.12L52.37 52.46L52.59 51.99L51.60 51.81L51.42 50.73L51.92 51.62L52.06 51.03L52.77 51.76L52.71 51.21L53.15 51.18L52.04 50.92L51.99 50.58L52.58 50.78L51.99 50.18L52.24 50.35L52.47 49.97L52.63 50.30L52.73 49.41L51.91 48.97L52.06 48.75L51.57 48.63L52.00 48.01L51.43 48.01L52.97 46.84L52.47 45.15L51.78 44.32L51.80 43.37L52.16 43.27L52.56 42.01L52.18 42.19L51.85 41.71L53.16 41.13L51.14 40.76L49.88 40.06L50.24 39.56L50.11 38.34L49.47 38.04L50.21 37.59L50.82 37.99L50.87 38.75L53.72 39.28L53.54 40.52L54.42 40.69L55.19 41.52L56.24 41.28L56.22 40.89L55.60 40.86L56.18 40.34L56.04 39.88L57.11 39.88L56.76 41.15L57.92 41.10L60.70 44.94L60.24 45.54L59.77 45.44L59.38 46.53L59.57 47.11L58.73 47.76L58.87 48.42L58.13 50.48L58.80 50.69L58.97 51.17L58.13 52.34L58.84 52.93L59.04 54.08L59.10 55.09L58.52 55.87L58.80 56.59L58.14 57.06L55.87 57.40L54.27 58.43L53.65 57.66L51.27 58.60L49.68 58.47L49.46 59.01L48.46 59.51L48.17 58.97L46.62 59.47L46.15 59.26L46.07 59.82L44.67 60.25L44.53 59.97L43.54 60.31L43.14 59.61L43.39 59.26L43.05 59.15ZM51.74 49.22L51.91 48.97L51.91 48.97L51.74 49.22Z"/>
      <path data-pref="28" d="M20.58 42.41L20.70 38.42L24.62 34.47L24.60 33.61L23.82 33.37L23.77 32.68L27.40 30.95L23.47 21.10L34.14 19.34L36.87 19.80L37.08 20.95L36.58 21.87L38.21 23.14L38.54 24.08L41.48 23.28L41.84 27.15L40.25 27.77L39.41 27.10L38.74 27.15L38.32 28.40L38.39 29.81L42.36 32.12L43.48 31.27L44.81 31.46L46.12 34.35L51.07 35.29L51.33 36.82L49.47 38.04L50.11 38.34L50.24 39.56L49.88 40.06L53.17 41.23L51.85 41.71L52.96 46.31L52.62 47.24L50.71 48.49L51.39 47.83L50.57 48.37L49.62 47.06L48.50 47.24L42.14 49.99L31.20 45.23L26.29 46.20L26.07 44.64L24.58 47.00L22.16 47.17Z"/>
      <path data-pref="28" d="M32.04 58.60L37.28 52.95L41.08 51.00L37.68 56.04L37.69 58.20L38.21 58.43L39.23 60.45L35.00 62.43L33.20 62.74L33.23 62.22L32.40 61.80L32.99 60.81L31.27 61.21L31.72 60.74L31.18 59.66Z"/>
      <path data-pref="29" d="M56.51 63.90L57.35 63.59L57.97 62.75L57.69 62.30L58.05 61.87L58.81 61.73L59.67 62.17L60.27 61.59L59.88 60.50L58.74 60.06L58.14 57.06L58.80 56.59L58.52 55.87L59.10 55.09L58.84 52.93L58.13 52.34L58.97 51.17L58.80 50.69L58.13 50.48L58.87 48.42L58.73 47.76L59.57 47.11L59.38 46.53L59.77 45.44L60.24 45.54L60.96 47.01L63.49 47.64L64.61 47.56L65.57 46.13L65.57 46.63L66.92 46.61L67.21 47.37L67.97 47.58L68.36 47.63L69.08 46.69L69.48 47.41L69.03 47.66L69.90 48.50L69.31 49.21L68.68 48.88L69.55 49.66L68.84 50.72L68.93 51.31L70.68 52.31L71.80 51.94L72.11 53.07L73.44 52.83L73.40 53.56L73.78 53.82L73.16 55.15L70.18 55.54L69.45 56.76L70.34 58.43L71.08 59.03L70.15 59.46L71.14 60.90L70.57 61.56L70.74 62.05L70.11 62.54L70.68 63.60L70.27 64.79L70.79 65.85L70.10 65.84L70.38 67.51L68.09 67.21L67.18 68.48L65.61 68.81L64.70 69.77L65.12 70.64L64.70 70.59L64.73 71.00L63.94 70.59L63.82 71.55L64.40 71.80L64.12 72.38L63.47 71.30L62.40 70.99L60.98 71.61L59.11 71.06L57.26 72.00L57.35 71.23L56.75 70.94L57.23 69.59L57.74 69.70L57.73 68.52L57.35 67.98L56.64 67.92L56.74 67.33L56.22 66.59L55.13 66.06L56.51 63.90ZM59.58 51.76L59.79 51.24L60.19 51.40L60.00 52.15L59.63 52.24L59.58 51.76ZM60.54 50.81L61.12 50.20L61.29 50.82L62.03 51.00L62.01 51.68L61.18 51.86L60.54 50.81Z"/>
      <path data-pref="30" d="M42.06 71.54L42.17 71.01L42.78 70.85L42.37 70.27L43.63 69.43L42.71 69.54L42.83 69.17L42.36 68.95L44.59 68.06L44.29 67.70L45.22 67.32L44.20 66.37L42.66 66.11L43.54 65.39L43.65 64.75L44.44 65.01L43.89 64.29L45.09 64.36L46.18 63.82L45.50 63.92L45.74 63.64L45.39 62.81L45.32 63.13L44.36 62.79L44.23 62.38L44.58 62.41L44.26 61.67L43.96 61.58L43.78 61.15L42.18 60.56L42.52 59.37L43.32 59.19L43.14 59.61L43.54 60.31L44.53 59.97L44.67 60.25L46.07 59.82L46.15 59.26L46.62 59.47L48.17 58.97L48.46 59.51L49.46 59.01L49.68 58.47L51.27 58.60L53.65 57.66L54.27 58.43L56.21 57.26L58.14 57.06L58.74 60.06L59.88 60.50L60.27 61.59L59.67 62.17L58.81 61.73L58.05 61.87L57.69 62.30L57.97 62.75L57.35 63.59L56.51 63.90L56.13 64.90L55.32 65.34L55.13 66.06L56.56 66.93L56.64 67.92L57.35 67.98L57.80 68.79L57.74 69.70L57.23 69.59L56.78 71.10L57.35 71.23L57.26 72.00L59.11 71.06L60.98 71.61L62.40 70.99L63.47 71.30L63.70 73.57L64.61 74.04L65.07 75.07L65.88 75.34L66.00 75.99L67.89 76.33L66.88 77.64L66.89 78.13L67.28 78.17L67.02 78.51L65.85 78.76L66.12 79.14L65.73 79.40L65.46 80.06L65.95 80.69L64.61 81.23L65.53 81.12L64.28 82.03L62.13 82.89L61.68 83.84L62.12 84.46L61.36 84.41L61.16 84.81L60.85 84.29L61.52 83.88L61.08 83.32L59.69 83.50L59.48 83.05L58.49 83.14L57.58 82.61L56.52 82.64L56.56 82.92L55.97 82.37L54.36 82.12L53.72 81.39L52.61 81.42L52.63 80.98L51.13 80.21L51.16 78.79L49.46 77.89L49.83 77.54L49.60 77.18L50.13 77.16L50.26 77.69L50.74 77.50L51.35 76.42L50.11 76.25L50.11 75.73L49.41 75.80L48.94 74.99L46.87 74.64L46.89 74.15L45.56 73.54L44.42 71.66L42.06 71.54ZM43.24 61.37L43.96 61.58L43.98 61.62L43.24 61.37ZM66.12 79.14L66.24 79.06L66.28 79.38L66.12 79.14Z"/>
  </g>
  <g class="map-lakes" fill="#c8ebff" fill-rule="evenodd" stroke="none">
      <path d="M65.00 39.53L63.87 38.41L65.55 35.58L65.42 33.48L68.17 30.80L68.13 30.35L69.63 29.75L69.43 28.81L68.58 27.89L68.85 26.11L69.61 25.54L70.22 25.91L70.83 24.91L71.60 26.10L72.13 24.10L72.79 24.68L72.92 25.73L72.62 25.93L73.41 27.70L74.32 27.81L75.02 28.49L74.47 30.47L71.63 32.49L69.90 33.14L71.13 33.19L71.58 33.65L70.61 34.24L70.92 34.61L70.27 34.42L70.10 33.61L69.55 33.47L69.17 34.10L69.30 34.45L69.75 34.29L69.70 34.60L67.87 35.07L67.32 34.85L66.69 35.50L66.02 35.49L65.83 36.18L66.20 36.85L65.71 36.86L65.00 37.94L65.38 38.71L65.00 39.53Z"/>
  </g>
</svg>
